<?xml version="1.0" encoding="UTF-8" standalone="no"?>
<!-- Created with Inkscape (http://www.inkscape.org/) -->

<svg
   width="20.32mm"
   height="128.5mm"
   viewBox="0 0 20.32 128.5"
   version="1.1"
   id="svg1"
   xmlns:xlink="http://www.w3.org/1999/xlink"
   xmlns="http://www.w3.org/2000/svg"
   xmlns:svg="http://www.w3.org/2000/svg">
  <defs
     id="defs1">
    <linearGradient
       id="linearGradient1">
      <stop
         style="stop-color:#eee8d9;stop-opacity:1;"
         offset="0"
         id="stop1" />
      <stop
         style="stop-color:#d0d0d0;stop-opacity:1;"
         offset="1"
         id="stop2" />
    </linearGradient>
    <linearGradient
       xlink:href="#linearGradient1"
       id="linearGradient2"
       x1="11.075537"
       y1="6.1155901"
       x2="11.075537"
       y2="116.52498"
       gradientUnits="userSpaceOnUse"
       gradientTransform="translate(-0.36621454)" />
  </defs>
  <g
     id="layer1">
    <rect
       style="fill:url(#linearGradient2);stroke:none;stroke-width:0.3;stroke-linejoin:round;stroke-dasharray:none;stroke-opacity:1;paint-order:stroke fill markers"
       id="rect1"
       width="20.32"
       height="128.5"
       x="0"
       y="0" />
    <g
       id="text2"
       style="font-size:8.11389px;font-family:'Noto Sans Mono CJK KR';-inkscape-font-specification:'Noto Sans Mono CJK KR';letter-spacing:-1.34144px;white-space:pre;inline-size:21.6356;fill:#eee8d9;stroke-width:0.264583"
       transform="matrix(1.0078564,0,0,1.0078564,-0.03383693,4.6342396)"
       aria-label="Dimit">
      <path
         style="font-family:'TeX Gyre Schola Math';-inkscape-font-specification:'TeX Gyre Schola Math';letter-spacing:-0.4445px;fill:#004021"
         d="m 6.3924923,3.9654174 c 0,-1.0953751 -0.4056945,-1.9960168 -1.1521724,-2.4828502 C 4.794056,1.198581 4.1936281,1.0687588 3.2686447,1.0687588 H 0.6884278 v 0.3813528 h 0.15416391 c 0.64911119,0 0.72213619,0.040569 0.72213619,0.3813528 v 4.3328171 c 0,0.3407834 -0.073025,0.3813529 -0.72213619,0.3813529 H 0.6884278 v 0.3813528 h 2.7262669 c 1.9960169,0 2.9777976,-1.0629196 2.9777976,-2.9615698 z M 5.3214588,3.997873 c 0,1.8175113 -0.5274028,2.5477614 -1.8337391,2.5477614 H 2.9359752 c -0.4056944,0 -0.4624917,-0.048683 -0.4624917,-0.446264 V 1.9044895 c 0,-0.3975806 0.056797,-0.4543779 0.4624917,-0.4543779 h 0.4219223 c 1.3874751,0 1.9635613,0.7545918 1.9635613,2.5477614 z"
         id="path15" />
      <path
         style="font-family:'TeX Gyre Schola Math';-inkscape-font-specification:'TeX Gyre Schola Math';letter-spacing:-0.508px;fill:#004021"
         d="M 8.6661445,6.9269872 V 6.6348871 h -0.097367 c -0.5274029,0 -0.5760862,-0.056797 -0.5760862,-0.3813528 V 3.1459146 L 6.46728,3.2351676 v 0.3488972 h 0.4138084 c 0.3002139,0 0.3488973,0.064911 0.3488973,0.4056945 v 2.2637752 c 0,0.3245556 -0.048683,0.3813528 -0.5679723,0.3813528 H 6.5646471 V 6.9269872 Z M 8.0170334,1.9775145 c 0,-0.2190751 -0.1866195,-0.4056945 -0.4056945,-0.4056945 -0.219075,0 -0.4056945,0.1866194 -0.4056945,0.4056945 0,0.219075 0.1866195,0.4056944 0.3975806,0.4056944 0.2271889,0 0.4138084,-0.1785055 0.4138084,-0.4056944 z"
         id="path16" />
      <path
         style="font-family:'TeX Gyre Schola Math';-inkscape-font-specification:'TeX Gyre Schola Math';letter-spacing:-0.799042px;fill:#004021"
         d="M 15.411951,6.9269872 V 6.6348871 h -0.113595 c -0.519289,0 -0.527403,-0.056797 -0.527403,-0.3894667 V 4.436023 c 0,-0.5030611 -0.04868,-0.6734528 -0.259644,-0.9493251 C 14.276006,3.186484 13.943337,3.0242062 13.55387,3.0242062 c -0.527403,0 -0.91687,0.2515306 -1.265767,0.811389 -0.137936,-0.4868334 -0.576086,-0.811389 -1.119717,-0.811389 -0.486833,0 -0.851958,0.2353028 -1.1683998,0.7464779 V 3.1459146 l -1.4442724,0.089253 v 0.3488972 h 0.3326695 c 0.3002139,0 0.3488973,0.056797 0.3488973,0.4056945 v 2.2556613 c 0,0.3326695 -0.00811,0.3894667 -0.5274029,0.3894667 H 8.5962833 V 6.9269872 H 10.640983 V 6.6348871 h -0.113594 c -0.519289,0 -0.5274028,-0.056797 -0.5274028,-0.3894667 v -1.468614 c 0,-0.7221362 0.3975808,-1.2576529 0.9249838,-1.2576529 0.210961,0 0.43815,0.1135945 0.535516,0.2677584 0.113595,0.1541639 0.162278,0.3894667 0.162278,0.7221361 v 1.7444863 c 0,0.3245556 -0.0081,0.3813528 -0.535517,0.3813528 h -0.113594 v 0.2921001 h 2.052814 V 6.6348871 h -0.113594 c -0.519289,0 -0.527403,-0.056797 -0.527403,-0.3813528 V 4.8498314 c 0,-0.811389 0.365125,-1.3306779 0.933097,-1.3306779 0.267758,0 0.486833,0.1541639 0.592314,0.4056945 0.07302,0.1785056 0.09737,0.3570111 0.09737,0.6734528 v 1.6552335 c 0,0.3245556 -0.0081,0.3813528 -0.535517,0.3813528 H 13.35914 v 0.2921001 z"
         id="path17" />
      <path
         style="font-family:'TeX Gyre Schola Math';-inkscape-font-specification:'TeX Gyre Schola Math';letter-spacing:-0.833438px;fill:#004021"
         d="M 17.128214,6.9269872 V 6.6348871 h -0.09737 c -0.527403,0 -0.576086,-0.056797 -0.576086,-0.3813528 V 3.1459146 l -1.525412,0.089253 v 0.3488972 h 0.413809 c 0.300214,0 0.348897,0.064911 0.348897,0.4056945 v 2.2637752 c 0,0.3245556 -0.04868,0.3813528 -0.567972,0.3813528 H 15.02671 V 6.9269872 Z M 16.479102,1.9775145 c 0,-0.2190751 -0.186619,-0.4056945 -0.405694,-0.4056945 -0.219075,0 -0.405695,0.1866194 -0.405695,0.4056945 0,0.219075 0.18662,0.4056944 0.397581,0.4056944 0.227189,0 0.413808,-0.1785055 0.413808,-0.4056944 z"
         id="path18" />
      <path
         style="font-family:'TeX Gyre Schola Math';-inkscape-font-specification:'TeX Gyre Schola Math';fill:#004021"
         d="m 19.540321,5.6368787 c 0,-0.048683 0,-0.1054806 -0.0081,-0.1866195 h -0.340784 c -0.02434,0.7302501 -0.235302,1.103489 -0.632883,1.103489 -0.373239,0 -0.47872,-0.2028472 -0.47872,-0.8438445 V 3.4948118 h 1.192742 V 3.1459146 H 18.07982 V 1.5393644 h -0.332669 c -0.08114,1.0548057 -0.43815,1.5903224 -1.095375,1.6390057 v 0.3164417 h 0.665339 v 2.0690419 c 0,0.5760862 0.01623,0.7708195 0.09737,0.957439 0.137936,0.3407834 0.446263,0.5274028 0.924983,0.5274028 0.803275,0 1.200856,-0.6409973 1.200856,-1.4118168 z"
         id="path19" />
    </g>
    <path
       style="font-size:2.82222px;font-family:'TeX Gyre Schola Math';-inkscape-font-specification:'TeX Gyre Schola Math';letter-spacing:0px;white-space:pre;inline-size:21.6356;fill:#004021;stroke-width:0.295463"
       d="m 2.8813898,120.62758 v -0.11345 H 2.2857366 v 0.11345 h 0.053578 c 0.1103065,0 0.1544286,0.0347 0.1544286,0.11346 0,0.0315 -0.012606,0.0788 -0.025213,0.11661 l -0.2678863,0.71857 -0.3088573,-0.80997 c -0.00946,-0.0221 -0.012606,-0.0378 -0.012606,-0.0662 0,-0.0567 0.028364,-0.0725 0.1323674,-0.0725 H 2.087186 V 120.5141 H 1.3812262 v 0.11345 h 0.053578 c 0.1008513,0 0.1323674,0.0252 0.1638835,0.11661 l 0.028364,0.0819 -0.2773415,0.73432 -0.3057057,-0.79105 c -0.0063,-0.0221 -0.012606,-0.0504 -0.012606,-0.0693 0,-0.0536 0.034668,-0.0725 0.1292158,-0.0725 h 0.056729 v -0.11345 H 0.52398984 v 0.11345 h 0.0567289 c 0.088245,0 0.11976097,0.0284 0.16388343,0.15443 L 1.2173427,122.03 h 0.1103065 l 0.3750406,-0.99591 0.3844958,0.99591 h 0.0977 l 0.4412243,-1.16294 c 0.069335,-0.18595 0.1040027,-0.23953 0.2143092,-0.23953 z m 0.9580872,1.35519 v -0.11345 h -0.03782 c -0.2048542,0 -0.2237638,-0.0221 -0.2237638,-0.14813 v -1.20706 l -0.5925012,0.0347 v 0.13552 h 0.1607318 c 0.1166093,0 0.135519,0.0252 0.135519,0.15758 v 0.8793 c 0,0.12607 -0.018909,0.14813 -0.2206123,0.14813 h -0.03782 v 0.11345 z M 3.5873487,120.0603 c 0,-0.0851 -0.072487,-0.15758 -0.1575802,-0.15758 -0.085093,0 -0.1575803,0.0725 -0.1575803,0.15758 0,0.0851 0.072487,0.15758 0.1544287,0.15758 0.088245,0 0.1607318,-0.0693 0.1607318,-0.15758 z m 1.2385761,1.92247 v -0.11345 h -0.053578 c -0.2048543,0 -0.2080058,-0.0221 -0.2080058,-0.14813 v -2.06115 l -0.5830468,0.0347 v 0.13552 h 0.1544286 c 0.1134577,0 0.1323673,0.0221 0.1323673,0.15758 v 1.73338 c 0,0.12606 -0.00315,0.14813 -0.2048542,0.14813 h -0.053578 v 0.11345 z m 1.8342293,0 v -0.13551 h -0.056729 c -0.1701867,0 -0.1953995,-0.0315 -0.1953995,-0.23007 v -1.95715 l -0.6177145,0.0347 v 0.13552 h 0.1859447 c 0.1134577,0 0.135519,0.0221 0.135519,0.15758 v 0.71226 c -0.1166094,-0.16073 -0.2521283,-0.23322 -0.4349214,-0.23322 -0.3561313,0 -0.6271692,0.34353 -0.6271692,0.79736 0,0.44753 0.2615832,0.76584 0.6271692,0.76584 0.1985511,0 0.33407,-0.0851 0.4349214,-0.27419 v 0.24898 z m -0.5515309,-0.72802 c 0,0.36559 -0.1449737,0.60511 -0.3718892,0.60511 -0.2206123,0 -0.3561313,-0.208 -0.3561313,-0.55783 0,-0.18595 0.018909,-0.32777 0.05988,-0.43492 0.053578,-0.13867 0.1701866,-0.23007 0.2994024,-0.23007 0.1292157,0 0.2521283,0.0945 0.3088572,0.23952 0.03782,0.0945 0.05988,0.22692 0.059881,0.37819 z m 2.0800571,0.32777 -0.1103062,-0.0599 c -0.1292158,0.24267 -0.2615831,0.33722 -0.4727407,0.33722 -0.2615831,0 -0.438073,-0.18909 -0.438073,-0.5862 h 1.0211199 c 0,-0.47274 -0.2615832,-0.80681 -0.6492306,-0.80681 -0.4034053,0 -0.7059593,0.34983 -0.7059593,0.82257 0,0.44123 0.286796,0.74063 0.7122626,0.74063 0.2994024,0 0.5137114,-0.14813 0.6429273,-0.44753 z m -0.3372217,-0.56099 c 0,0.0914 -0.028365,0.11661 -0.1292158,0.11661 H 7.1707121 c 0,-0.33722 0.1701867,-0.53577 0.3624345,-0.53577 0.1922478,0 0.318312,0.16704 0.318312,0.41916 z m 1.8184696,-0.30255 c 0,-0.15128 -0.107154,-0.25213 -0.2741895,-0.25213 -0.1985511,0 -0.3718894,0.16073 -0.4727406,0.43808 v -0.3908 l -0.557834,0.0347 v 0.13552 h 0.1292157 c 0.1166094,0 0.135519,0.0221 0.135519,0.15758 v 0.8793 c 0,0.12606 -0.00315,0.14813 -0.2080058,0.14813 H 8.377771 v 0.11345 h 0.841478 v -0.11345 h -0.05988 c -0.2017027,0 -0.2363703,-0.0221 -0.2363703,-0.14813 v -0.15758 c 0,-0.23637 0.044122,-0.47589 0.1229126,-0.65553 0.075638,-0.17649 0.182793,-0.27419 0.3151604,-0.28995 -0.044122,0.0504 -0.056729,0.0819 -0.056729,0.14182 0,0.10085 0.072487,0.17334 0.1733382,0.17334 0.1134577,0 0.1922478,-0.0851 0.1922475,-0.21431 z m 1.7365298,-0.11346 c 0,-0.10715 -0.08509,-0.18279 -0.208007,-0.18279 -0.100851,0 -0.15758,0.0315 -0.302554,0.16388 -0.132367,-0.0882 -0.233218,-0.11976 -0.390799,-0.11976 -0.375041,0 -0.6208656,0.20801 -0.6208656,0.52317 0,0.18594 0.1008513,0.34668 0.2647346,0.42231 -0.2111574,0.0473 -0.2994022,0.14183 -0.2994022,0.31516 0,0.13867 0.063032,0.22062 0.2111572,0.27104 -0.1953992,0.0693 -0.2899474,0.17019 -0.2899474,0.2994 0,0.20801 0.2426734,0.32462 0.6649884,0.32462 0.526318,0 0.791053,-0.16704 0.791053,-0.49795 0,-0.15758 -0.07249,-0.28365 -0.189097,-0.33092 -0.08194,-0.0315 -0.182792,-0.0441 -0.400253,-0.0441 h -0.321464 c -0.173338,0 -0.182793,-0.009 -0.220612,-0.0284 -0.02206,-0.0126 -0.03782,-0.0473 -0.03782,-0.0819 0,-0.0945 0.08509,-0.13552 0.296251,-0.14182 0.299402,-0.006 0.346676,-0.0126 0.450679,-0.0599 0.189097,-0.0851 0.296251,-0.24898 0.296251,-0.45699 0,-0.12606 -0.02836,-0.20485 -0.116609,-0.30885 0.05358,-0.0567 0.08194,-0.0756 0.107155,-0.0756 0.03467,0 0.03782,0.16073 0.173338,0.16073 0.0788,0 0.141823,-0.0662 0.141823,-0.15128 z m -0.595654,0.3782 c 0,0.24582 -0.119761,0.39395 -0.321464,0.39395 -0.195399,0 -0.318312,-0.14813 -0.318312,-0.3845 0,-0.24898 0.119761,-0.3908 0.330919,-0.3908 0.198551,0 0.308857,0.13867 0.308857,0.38135 z m 0.195399,1.22597 c 0,0.17964 -0.204854,0.28364 -0.557833,0.28364 -0.264735,0 -0.416012,-0.0788 -0.416012,-0.22061 0,-0.104 0.05673,-0.17334 0.208006,-0.25213 h 0.233218 c 0.261584,0 0.280493,0 0.327767,0.006 0.126064,0.0126 0.204854,0.0819 0.204854,0.18279 z m 2.095813,-0.38765 c 0,-0.0221 -0.01576,-0.0378 -0.03151,-0.0378 -0.04412,0 -0.116609,0.0347 -0.135518,0.0347 -0.08824,0 -0.119762,-0.0599 -0.119762,-0.21746 v -0.63347 c 0,-0.40341 -0.223763,-0.50111 -0.586197,-0.50111 -0.35298,0 -0.614563,0.16704 -0.614563,0.39395 0,0.11976 0.07249,0.1954 0.182792,0.1954 0.0977,0 0.170187,-0.0662 0.170187,-0.16073 0,-0.0567 -0.06934,-0.15443 -0.06934,-0.17019 0,-0.0662 0.129216,-0.12291 0.280493,-0.12291 0.211158,0 0.340374,0.0693 0.340374,0.34668 v 0.12291 c -0.734325,0.12606 -0.989604,0.28049 -0.989604,0.58935 0,0.22376 0.179641,0.36874 0.456983,0.36874 0.217461,0 0.412859,-0.0883 0.548379,-0.24898 0.05042,0.16073 0.129216,0.22377 0.277341,0.22377 0.141822,0 0.289947,-0.0914 0.289947,-0.1828 z m -0.583046,-0.46959 c 0,0.1891 -0.0095,0.23322 -0.06304,0.31516 -0.0788,0.11661 -0.223764,0.1954 -0.359283,0.1954 -0.141823,0 -0.248977,-0.104 -0.248977,-0.24582 0,-0.22377 0.126065,-0.31831 0.671292,-0.40971 z m 1.994964,-0.63347 c 0,-0.15128 -0.10716,-0.25213 -0.27419,-0.25213 -0.198551,0 -0.371889,0.16073 -0.47274,0.43808 v -0.3908 l -0.557834,0.0347 v 0.13552 h 0.129216 c 0.11661,0 0.135519,0.0221 0.135519,0.15758 v 0.8793 c 0,0.12607 -0.0031,0.14813 -0.208006,0.14813 h -0.04412 v 0.11345 h 0.841478 v -0.11345 h -0.05988 c -0.201703,0 -0.236371,-0.0221 -0.236371,-0.14813 v -0.15758 c 0,-0.23637 0.04412,-0.47589 0.122913,-0.65553 0.07564,-0.17649 0.182794,-0.27419 0.315161,-0.28995 -0.04412,0.0504 -0.05673,0.0819 -0.05673,0.14182 0,0.10085 0.07249,0.17334 0.173338,0.17334 0.113458,0 0.192247,-0.0851 0.192247,-0.21431 z m 1.774348,1.26379 v -0.13551 h -0.05673 c -0.170187,0 -0.1954,-0.0315 -0.1954,-0.23007 v -1.95715 l -0.617715,0.0347 v 0.13552 h 0.185945 c 0.113458,0 0.13552,0.0221 0.13552,0.15758 v 0.71226 c -0.116609,-0.16073 -0.252129,-0.23322 -0.434922,-0.23322 -0.356132,0 -0.627169,0.34353 -0.627169,0.79736 0,0.44753 0.261583,0.76584 0.627169,0.76584 0.198551,0 0.33407,-0.0851 0.434922,-0.27419 v 0.24898 z m -0.551531,-0.72802 c 0,0.36559 -0.144974,0.60511 -0.371889,0.60511 -0.220613,0 -0.356131,-0.208 -0.356131,-0.55783 0,-0.18595 0.01891,-0.32777 0.05988,-0.43492 0.05358,-0.13867 0.170186,-0.23007 0.299402,-0.23007 0.129216,0 0.252128,0.0945 0.308857,0.23952 0.03782,0.0945 0.05988,0.22692 0.05988,0.37819 z m 2.080058,0.32777 -0.110309,-0.0599 c -0.129216,0.24267 -0.261583,0.33722 -0.472741,0.33722 -0.261582,0 -0.438073,-0.18909 -0.438073,-0.5862 h 1.021121 c 0,-0.47274 -0.261584,-0.80681 -0.649232,-0.80681 -0.403405,0 -0.705959,0.34983 -0.705959,0.82257 0,0.44123 0.286796,0.74063 0.712263,0.74063 0.299403,0 0.513712,-0.14813 0.642928,-0.44753 z m -0.337222,-0.56099 c 0,0.0914 -0.02836,0.11661 -0.129216,0.11661 h -0.55153 c 0,-0.33722 0.170185,-0.53577 0.362434,-0.53577 0.192247,0 0.318312,0.16704 0.318312,0.41916 z m 2.316422,0.96124 v -0.11345 h -0.04412 c -0.201703,0 -0.204854,-0.0221 -0.204854,-0.14813 v -0.62087 c 0,-0.22691 -0.0095,-0.28364 -0.06619,-0.39079 -0.0788,-0.15128 -0.239523,-0.24268 -0.425467,-0.24268 -0.201703,0 -0.359283,0.0946 -0.497954,0.30256 v -0.25528 l -0.545227,0.0347 v 0.13552 h 0.113457 c 0.11661,0 0.13552,0.0221 0.13552,0.15758 v 0.8793 c 0,0.12606 -0.0031,0.14813 -0.204855,0.14813 H 18.0122 v 0.11345 h 0.797356 v -0.11345 h -0.04412 c -0.204854,0 -0.208007,-0.0221 -0.208007,-0.14813 v -0.45383 c 0,-0.15443 0.02207,-0.29625 0.05673,-0.36874 0.06619,-0.14182 0.208007,-0.23952 0.343525,-0.23952 0.08194,0 0.176491,0.0473 0.223764,0.11031 0.04727,0.0662 0.06934,0.16388 0.06934,0.31516 v 0.63662 c 0,0.12607 -0.0031,0.14813 -0.208006,0.14813 h -0.04412 v 0.11345 z"
       id="text2-7"
       aria-label="wildergarden" />
    <rect
       style="fill:#00391f;fill-opacity:0.0527585;stroke:#00351b;stroke-width:0.312771;stroke-linejoin:round;stroke-dasharray:none;stroke-opacity:1"
       id="rect9"
       width="17.117373"
       height="38.780933"
       x="1.6013136"
       y="33.420769"
       ry="2.9963195" />
    <rect
       style="fill:#003920;fill-opacity:1;stroke:#00351b;stroke-width:0.222402;stroke-linejoin:round;stroke-dasharray:none;stroke-opacity:1"
       id="rect9-3"
       width="16.291885"
       height="20.601885"
       x="2.0140569"
       y="95.981102"
       ry="1.5917573" />
    <path
       style="font-size:5.8118px;font-family:'TeX Gyre Cursor';-inkscape-font-specification:'TeX Gyre Cursor';letter-spacing:0px;stroke-width:0.545713;stroke-linejoin:round;paint-order:stroke fill markers"
       d="m 9.5294241,89.612594 c 0,-0.07555 -0.052306,-0.116236 -0.1627304,-0.116236 H 8.4368057 V 87.311121 H 7.5127295 c -0.1046124,0 -0.1569186,0.04068 -0.1569186,0.116236 0,0.08137 0.052306,0.122048 0.1569186,0.122048 h 0.6857924 v 1.946953 h -0.929888 c -0.1046124,0 -0.1569186,0.04068 -0.1569186,0.116236 0,0.08137 0.052306,0.122048 0.1569186,0.122048 h 2.0980598 c 0.1046124,0 0.1627304,-0.04068 0.1627304,-0.122048 z M 8.6111597,86.485846 c 0,-0.162731 -0.1278596,-0.296402 -0.29059,-0.296402 -0.1569186,0 -0.29059,0.133671 -0.29059,0.29059 0,0.156919 0.1336714,0.29059 0.29059,0.29059 0.1569186,0 0.29059,-0.133671 0.29059,-0.284778 z m 4.5971253,3.126748 c 0,-0.07555 -0.05231,-0.116236 -0.156919,-0.116236 h -0.197601 v -1.476197 c 0,-0.447509 -0.395203,-0.790405 -0.912453,-0.790405 -0.360331,0 -0.569556,0.110424 -0.906641,0.48238 v -0.401015 h -0.435885 c -0.104612,0 -0.156918,0.04068 -0.156918,0.116236 0,0.08137 0.05231,0.122048 0.156918,0.122048 h 0.197602 v 1.946953 h -0.261531 c -0.110425,0 -0.162731,0.04068 -0.162731,0.116236 0,0.08137 0.05231,0.122048 0.162731,0.122048 h 0.761345 c 0.104613,0 0.156919,-0.04068 0.156919,-0.122048 0,-0.07555 -0.05231,-0.116236 -0.156919,-0.116236 h -0.261531 v -1.470385 c 0.261531,-0.348708 0.430074,-0.557933 0.883394,-0.557933 0.360332,0 0.697416,0.220848 0.697416,0.592804 v 1.435514 H 12.41788 c -0.104613,0 -0.156919,0.04068 -0.156919,0.116236 0,0.08137 0.05231,0.122048 0.156919,0.122048 h 0.633486 c 0.104612,0 0.156919,-0.04068 0.156919,-0.122048 z"
       id="text9"
       aria-label="in" />
    <path
       style="font-size:5.8118px;font-family:'TeX Gyre Cursor';-inkscape-font-specification:'TeX Gyre Cursor';letter-spacing:0px;fill:#ffffff;stroke-width:0.545713;stroke-linejoin:round;paint-order:stroke fill markers"
       d="m 8.0822899,111.33096 c 0,-0.7381 -0.58118,-1.31347 -1.3250904,-1.31347 -0.7380986,0 -1.3250904,0.58118 -1.3250904,1.29603 0,0.72648 0.5869918,1.30185 1.3250904,1.30185 0.7322868,0 1.3250904,-0.57537 1.3250904,-1.28441 z m -0.2382838,0 c 0,0.57537 -0.4881912,1.04612 -1.0868066,1.04612 -0.6044272,0 -1.0868066,-0.47075 -1.0868066,-1.06356 0,-0.58699 0.4823794,-1.05774 1.0868066,-1.05774 0.610239,0 1.0868066,0.46494 1.0868066,1.07518 z m 3.8009079,1.06937 c 0,-0.0755 -0.05231,-0.11624 -0.156918,-0.11624 h -0.197601 v -2.18523 h -0.668357 c -0.110425,0 -0.162731,0.0407 -0.162731,0.11623 0,0.0814 0.05231,0.12205 0.162731,0.12205 h 0.430073 v 1.51688 c -0.319649,0.34871 -0.674169,0.52306 -1.0635597,0.52306 -0.2964018,0 -0.5288738,-0.23247 -0.5288738,-0.52306 v -1.75516 h -0.552121 c -0.1046124,0 -0.1569186,0.0407 -0.1569186,0.11623 0,0.0814 0.052306,0.12205 0.1569186,0.12205 h 0.3138372 v 1.51688 c 0,0.45913 0.3080254,0.76135 0.7729694,0.76135 0.3835789,0 0.7380989,-0.16273 1.0577479,-0.47657 v 0.38358 h 0.435885 c 0.104612,0 0.156918,-0.0407 0.156918,-0.12205 z m 3.242976,-0.17435 c 0,-0.0581 -0.05231,-0.11624 -0.110424,-0.11624 -0.02906,0 -0.0465,0.006 -0.09299,0.0349 -0.22666,0.13367 -0.639298,0.23247 -0.964759,0.23247 -0.401014,0 -0.650922,-0.19179 -0.650922,-0.48819 v -1.55175 h 1.278596 c 0.104613,0 0.156919,-0.0407 0.156919,-0.12205 0,-0.0756 -0.05231,-0.11623 -0.156919,-0.11623 h -1.278596 v -0.69161 c 0,-0.11042 -0.03487,-0.15692 -0.116236,-0.15692 -0.08136,0 -0.122047,0.0523 -0.122047,0.15692 v 0.69161 h -0.430074 c -0.110424,0 -0.16273,0.0407 -0.16273,0.11623 0,0.0814 0.05231,0.12205 0.16273,0.12205 h 0.430074 v 1.56337 c 0,0.43589 0.354519,0.71486 0.900829,0.71486 0.494003,0 1.156548,-0.22085 1.156548,-0.38939 z"
       id="text9-1"
       aria-label="out" />
    <path
       style="font-size:5.8118px;font-family:'TeX Gyre Cursor';-inkscape-font-specification:'TeX Gyre Cursor';letter-spacing:0px;stroke-width:0.545713;stroke-linejoin:round;paint-order:stroke fill markers"
       d="m 6.5625091,53.232758 c 0,-0.07555 -0.052306,-0.116236 -0.1569186,-0.116236 h -0.552121 v 0.48238 c -0.261531,-0.389391 -0.5695564,-0.563745 -0.9938178,-0.563745 -0.6567334,0 -1.1972308,0.621863 -1.1972308,1.296031 0,0.674169 0.5404974,1.296032 1.1972308,1.296032 0.4184496,0 0.7322868,-0.180166 0.9938178,-0.563745 v 0.604427 c 0,0.395203 -0.3138372,0.714852 -0.7090396,0.714852 H 4.4702611 c -0.1046124,0 -0.1569186,0.04068 -0.1569186,0.116236 0,0.08136 0.052306,0.122048 0.1569186,0.122048 h 0.6625452 c 0.29059,0 0.5056266,-0.0988 0.7090396,-0.313838 0.174354,-0.185977 0.2499074,-0.366143 0.2499074,-0.604427 v -2.347967 h 0.3138372 c 0.1046124,0 0.1569186,-0.04068 0.1569186,-0.122048 z m -0.7090396,1.110054 c 0,0.540497 -0.435885,1.046124 -0.9763824,1.046124 -0.5404974,0 -0.9763824,-0.505627 -0.9763824,-1.057748 0,-0.546309 0.4300732,-1.057747 0.9763824,-1.057747 0.552121,0 0.9763824,0.505626 0.9763824,1.069371 z m 4.0740629,-0.924076 c 0,-0.05231 -0.034871,-0.0988 -0.1336714,-0.180166 -0.1511068,-0.12786 -0.2789664,-0.180166 -0.4475086,-0.180166 -0.2964018,0 -0.58118,0.162731 -1.1216774,0.650922 V 53.116522 H 7.5505062 c -0.098801,0 -0.1569186,0.0465 -0.1569186,0.116236 0,0.07555 0.058118,0.122048 0.1569186,0.122048 h 0.435885 v 1.946953 H 7.4284584 c -0.098801,0 -0.1569186,0.04649 -0.1569186,0.116236 0,0.07555 0.058118,0.122048 0.1569186,0.122048 h 1.8365288 c 0.098801,0 0.1569186,-0.0465 0.1569186,-0.116236 0,-0.07555 -0.058118,-0.122048 -0.1569186,-0.122048 H 8.224675 v -1.284408 c 0.639298,-0.586992 0.842711,-0.720663 1.104242,-0.720663 0.1278596,0 0.2440956,0.06393 0.3835788,0.197601 0.040683,0.04068 0.052306,0.0465 0.092989,0.0465 0.069742,0 0.1220478,-0.05231 0.1220478,-0.122048 z m 3.2952816,1.999259 c 0,-0.07555 -0.05231,-0.116236 -0.16273,-0.116236 h -0.929888 v -2.185237 h -0.924077 c -0.104612,0 -0.156918,0.04068 -0.156918,0.116236 0,0.08137 0.05231,0.122048 0.156918,0.122048 h 0.685793 v 1.946953 h -0.929888 c -0.104613,0 -0.156919,0.04068 -0.156919,0.116236 0,0.08137 0.05231,0.122048 0.156919,0.122048 h 2.09806 c 0.104612,0 0.16273,-0.04068 0.16273,-0.122048 z M 12.30455,52.291247 c 0,-0.162731 -0.12786,-0.296402 -0.29059,-0.296402 -0.156919,0 -0.29059,0.133671 -0.29059,0.29059 0,0.156918 0.133671,0.29059 0.29059,0.29059 0.156918,0 0.29059,-0.133672 0.29059,-0.284778 z m 4.353029,2.952394 c 0,-0.05812 -0.05231,-0.116236 -0.110424,-0.116236 -0.02906,0 -0.0465,0.0058 -0.09299,0.03487 -0.22666,0.133671 -0.639298,0.232472 -0.964759,0.232472 -0.401014,0 -0.650922,-0.19179 -0.650922,-0.488191 v -1.551751 h 1.278596 c 0.104613,0 0.156919,-0.04068 0.156919,-0.122048 0,-0.07555 -0.05231,-0.116236 -0.156919,-0.116236 h -1.278596 v -0.691604 c 0,-0.110424 -0.03487,-0.156919 -0.116236,-0.156919 -0.08136,0 -0.122047,0.05231 -0.122047,0.156919 v 0.691604 h -0.430074 c -0.110424,0 -0.16273,0.04068 -0.16273,0.116236 0,0.08137 0.05231,0.122048 0.16273,0.122048 h 0.430074 v 1.563374 c 0,0.435885 0.354519,0.714852 0.900829,0.714852 0.494003,0 1.156548,-0.220849 1.156548,-0.389391 z"
       id="text9-1-8"
       aria-label="grit" />
    <path
       style="font-size:4.93889px;font-family:'TeX Gyre Cursor';-inkscape-font-specification:'TeX Gyre Cursor';letter-spacing:0px;stroke-width:0.545713;stroke-linejoin:round;paint-order:stroke fill markers"
       d="m 3.7493395,28.481403 c 0,-0.04939 -0.04445,-0.09878 -0.093839,-0.09878 -0.024694,0 -0.039511,0.0049 -0.079022,0.02963 -0.1926167,0.113595 -0.5432779,0.197556 -0.8198558,0.197556 -0.3407834,0 -0.5531556,-0.162984 -0.5531556,-0.414867 v -1.318684 h 1.0865558 c 0.0889,0 0.13335,-0.03457 0.13335,-0.103716 0,-0.06421 -0.04445,-0.09878 -0.13335,-0.09878 H 2.203467 v -0.587728 c 0,-0.09384 -0.029633,-0.13335 -0.098778,-0.13335 -0.069145,0 -0.1037167,0.04445 -0.1037167,0.13335 v 0.587728 H 1.6354946 c -0.093839,0 -0.1382889,0.03457 -0.1382889,0.09878 0,0.06914 0.04445,0.103716 0.1382889,0.103716 h 0.3654779 v 1.328562 c 0,0.370416 0.3012723,0.607483 0.7655279,0.607483 0.4198057,0 0.9828391,-0.187678 0.9828391,-0.330905 z m 3.2201488,0.148166 c 0,-0.06421 -0.04445,-0.09878 -0.138289,-0.09878 h -0.22225 v -1.234722 c 0,-0.40005 -0.3259667,-0.691445 -0.7852835,-0.691445 -0.3012723,0 -0.5087057,0.113595 -0.7605891,0.414867 V 25.750196 H 4.5938822 c -0.0889,0 -0.13335,0.03457 -0.13335,0.09878 0,0.06915 0.04445,0.103717 0.13335,0.103717 h 0.2667 v 2.5781 H 4.6333933 c -0.0889,0 -0.13335,0.03457 -0.13335,0.09878 0,0.06914 0.049389,0.103717 0.13335,0.103717 h 0.6519335 c 0.0889,0 0.1382889,-0.03457 0.1382889,-0.103717 0,-0.06421 -0.04445,-0.09878 -0.1382889,-0.09878 H 5.0630767 v -1.259417 l 0.054328,-0.06421 c 0.2667001,-0.316089 0.404989,-0.40005 0.6815668,-0.40005 0.3210279,0 0.6074835,0.1778 0.6074835,0.503767 v 1.219905 h -0.22225 c -0.0889,0 -0.1333501,0.03457 -0.1333501,0.09878 0,0.06914 0.04445,0.103717 0.1333501,0.103717 h 0.6469945 c 0.093839,0 0.138289,-0.03457 0.138289,-0.103717 z m 2.9139375,-1.698978 c 0,-0.04445 -0.029633,-0.08396 -0.1135945,-0.153106 C 9.6414202,26.66883 9.5327646,26.62438 9.3895368,26.62438 c -0.2518834,0 -0.493889,0.138289 -0.9532057,0.553156 V 26.673769 H 7.8634198 c -0.083961,0 -0.13335,0.03951 -0.13335,0.09878 0,0.06421 0.049389,0.103716 0.13335,0.103716 h 0.3704168 v 1.654528 H 7.7597031 c -0.083961,0 -0.13335,0.03951 -0.13335,0.09878 0,0.06421 0.049389,0.103717 0.13335,0.103717 h 1.5606893 c 0.083961,0 0.13335,-0.03951 0.13335,-0.09878 0,-0.06421 -0.049389,-0.103717 -0.13335,-0.103717 H 8.4363311 v -1.091494 c 0.5432779,-0.498828 0.716139,-0.612423 0.9383891,-0.612423 0.1086555,0 0.2074333,0.05433 0.3259667,0.167923 0.034572,0.03457 0.04445,0.03951 0.079022,0.03951 0.059267,0 0.1037167,-0.04445 0.1037167,-0.103717 z m 2.8596102,0.819856 c 0,-0.227189 -0.01482,-0.321028 -0.08396,-0.484011 -0.1778,-0.409928 -0.572911,-0.661812 -1.047044,-0.661812 -0.632178,0 -1.126067,0.459317 -1.126067,1.056923 0,0.642055 0.528461,1.150761 1.195211,1.150761 0.449439,0 1.042106,-0.232128 1.042106,-0.404989 0,-0.05433 -0.04445,-0.09878 -0.09384,-0.09878 -0.02469,0 -0.04445,0.0099 -0.07902,0.03457 -0.197556,0.158044 -0.558095,0.2667 -0.864306,0.2667 -0.5334,0 -0.928511,-0.340784 -0.997656,-0.859367 z m -0.207434,-0.202495 h -1.847145 c 0.0889,-0.454378 0.4445,-0.740833 0.923573,-0.740833 0.479072,0 0.84455,0.291394 0.923572,0.740833 z m 3.057166,0.612423 c 0,-0.350662 -0.301273,-0.543278 -0.889001,-0.637117 -0.424744,-0.06914 -0.730955,-0.04939 -0.730955,-0.345722 0,-0.212373 0.276577,-0.370417 0.642055,-0.370417 0.375356,0 0.632178,0.143228 0.656873,0.365478 0.0099,0.07902 0.04445,0.113594 0.103716,0.113594 0.06421,0 0.09878,-0.04445 0.09878,-0.13335 v -0.340783 c 0,-0.09384 -0.03457,-0.138289 -0.09878,-0.138289 -0.0642,0 -0.103716,0.05433 -0.103716,0.138289 v 0.01975 c -0.172861,-0.153105 -0.395111,-0.227189 -0.676628,-0.227189 -0.484011,0 -0.84455,0.237067 -0.84455,0.558095 0,0.291394 0.167922,0.469194 0.869244,0.548217 0.5334,0.05927 0.750712,0.217311 0.750712,0.4445 0,0.261761 -0.325967,0.454378 -0.76059,0.454378 -0.419805,0 -0.760589,-0.182739 -0.760589,-0.409928 v -0.03457 c 0,-0.06421 -0.03951,-0.108656 -0.09878,-0.108656 -0.06915,0 -0.103717,0.04445 -0.103717,0.13335 v 0.409928 c 0,0.0889 0.03457,0.13335 0.103717,0.13335 0.0642,0 0.09878,-0.04445 0.09878,-0.13335 v -0.05433 c 0.207434,0.182739 0.454378,0.2667 0.775406,0.2667 0.558095,0 0.968023,-0.276578 0.968023,-0.651933 z m 3.230026,0.469194 c 0,-0.06421 -0.04445,-0.09878 -0.138289,-0.09878 h -0.22225 v -1.234722 c 0,-0.40005 -0.325967,-0.691445 -0.785283,-0.691445 -0.301273,0 -0.508706,0.113595 -0.760589,0.414867 v -1.269295 h -0.469195 c -0.0889,0 -0.13335,0.03457 -0.13335,0.09878 0,0.06915 0.04445,0.103717 0.13335,0.103717 h 0.2667 v 2.5781 h -0.227189 c -0.0889,0 -0.13335,0.03457 -0.13335,0.09878 0,0.06914 0.04939,0.103717 0.13335,0.103717 h 0.651934 c 0.0889,0 0.138289,-0.03457 0.138289,-0.103717 0,-0.06421 -0.04445,-0.09878 -0.138289,-0.09878 h -0.22225 v -1.259417 l 0.05433,-0.06421 c 0.2667,-0.316089 0.404989,-0.40005 0.681567,-0.40005 0.321028,0 0.607484,0.1778 0.607484,0.503767 v 1.219905 h -0.22225 c -0.0889,0 -0.13335,0.03457 -0.13335,0.09878 0,0.06914 0.04445,0.103717 0.13335,0.103717 h 0.646994 c 0.09384,0 0.138289,-0.03457 0.138289,-0.103717 z"
       id="text9-1-8-4"
       aria-label="thresh" />
  </g>
  <g
     id="components"
     style="display:inline">
    <circle
       style="fill:#0000ff;fill-opacity:1;stroke-width:0.0996992"
       id="output"
       cx="10.16"
       cy="102.37634"
       r="2" />
    <circle
       style="fill:#ff00ff;fill-opacity:1;stroke:none;stroke-width:0.171768;stroke-linejoin:round;stroke-dasharray:none;stroke-opacity:1;paint-order:stroke fill markers"
       id="path10"
       cx="17.417143"
       cy="92.57991"
       r="1" />
    <circle
       style="fill:#00ff00;fill-opacity:1;stroke-width:0.0996992"
       id="input"
       cx="10.16"
       cy="80.210571"
       r="2" />
    <circle
       style="fill:#00ff00;fill-opacity:1;stroke-width:0.0996992"
       id="gritcv"
       cx="10.16"
       cy="63.499779"
       r="2" />
    <circle
       style="fill:#ff0000;fill-opacity:1;stroke-width:0.0996992"
       id="gritknob"
       cx="10.16"
       cy="41.874084"
       r="2" />
    <circle
       style="fill:#ff0000;fill-opacity:1;stroke-width:0.0996992"
       id="threshold"
       cx="10.16"
       cy="17.994289"
       r="2" />
  </g>
</svg>
