<?xml version="1.0" encoding="UTF-8" standalone="no"?>
<!-- Created with Inkscape (http://www.inkscape.org/) -->

<svg
   width="101.6mm"
   height="128.5mm"
   viewBox="0 0 101.6 128.5"
   version="1.1"
   id="svg1"
   inkscape:version="1.4 (1:1.4+202410161351+e7c3feb100)"
   sodipodi:docname="Pascal.svg"
   xmlns:inkscape="http://www.inkscape.org/namespaces/inkscape"
   xmlns:sodipodi="http://sodipodi.sourceforge.net/DTD/sodipodi-0.dtd"
   xmlns:xlink="http://www.w3.org/1999/xlink"
   xmlns="http://www.w3.org/2000/svg"
   xmlns:svg="http://www.w3.org/2000/svg">
  <sodipodi:namedview
     id="namedview1"
     pagecolor="#ffffff"
     bordercolor="#000000"
     borderopacity="0.25"
     inkscape:showpageshadow="2"
     inkscape:pageopacity="0.0"
     inkscape:pagecheckerboard="0"
     inkscape:deskcolor="#d1d1d1"
     inkscape:document-units="mm"
     inkscape:zoom="2.043487"
     inkscape:cx="189.38217"
     inkscape:cy="201.86084"
     inkscape:window-width="1920"
     inkscape:window-height="1016"
     inkscape:window-x="1920"
     inkscape:window-y="27"
     inkscape:window-maximized="1"
     inkscape:current-layer="layer1"
     showgrid="false" />
  <defs
     id="defs1">
    <linearGradient
       xlink:href="#linearGradient1"
       id="linearGradient2"
       x1="11.075537"
       y1="6.1155901"
       x2="11.075537"
       y2="116.52498"
       gradientUnits="userSpaceOnUse"
       gradientTransform="matrix(5,0,0,1,-1.831075,0)" />
    <linearGradient
       id="linearGradient1">
      <stop
         style="stop-color:#eee8d9;stop-opacity:1;"
         offset="0"
         id="stop1" />
      <stop
         style="stop-color:#d0d0d0;stop-opacity:1;"
         offset="1"
         id="stop2" />
    </linearGradient>
  </defs>
  <g
     inkscape:label="Layer 1"
     inkscape:groupmode="layer"
     id="layer1">
    <rect
       style="fill:url(#linearGradient2);stroke:none;stroke-width:0.670821;stroke-linejoin:round;stroke-dasharray:none;stroke-opacity:1;paint-order:stroke fill markers"
       id="rect1"
       width="101.6"
       height="128.5"
       x="0"
       y="0" />
    <path
       style="font-size:9.87778px;font-family:'TeX Gyre Schola';-inkscape-font-specification:'TeX Gyre Schola';letter-spacing:0px;fill:#004021;stroke-width:0.265;stroke-linejoin:round;paint-order:stroke fill markers"
       d="m 42.513029,5.9828164 c 0,-1.2248445 -0.859367,-1.9558002 -2.676878,-1.9558002 h -3.457223 v 0.4642557 h 0.1778 c 0.8001,0 0.889,0.049389 0.889,0.4642556 v 5.2747305 c 0,0.414867 -0.0889,0.464256 -0.889,0.464256 h -0.1778 v 0.464255 h 3.318934 V 10.694514 H 39.44104 c -0.800101,0 -0.889001,-0.04939 -0.889001,-0.464256 V 7.9880042 h 1.11619 c 0.889,0 1.353255,-0.06914 1.748367,-0.2568217 0.701322,-0.335845 1.096433,-0.9680214 1.096433,-1.7483661 z m -1.214967,0.03951 c 0,1.0174104 -0.503767,1.5014211 -1.550811,1.5014211 H 38.552039 V 4.9950387 c 0,-0.4543779 0.05927,-0.5037668 0.602545,-0.5037668 h 0.632178 c 1.027289,0 1.5113,0.4840112 1.5113,1.5310545 z m 6.50944,4.6326756 c 0,-0.06915 -0.04939,-0.118534 -0.09878,-0.118534 -0.138289,0 -0.365478,0.108656 -0.424745,0.108656 -0.276578,0 -0.375356,-0.187678 -0.375356,-0.6815667 V 7.9781252 c 0,-1.2643541 -0.701322,-1.5705661 -1.837267,-1.5705661 -1.106311,0 -1.926167,0.5235227 -1.926167,1.2347224 0,0.3753557 0.227189,0.6124217 0.572912,0.6124217 0.306211,0 0.5334,-0.207433 0.5334,-0.5037657 0,-0.177801 -0.217312,-0.4840117 -0.217312,-0.5334007 0,-0.207433 0.404989,-0.385233 0.879123,-0.385233 0.661811,0 1.0668,0.217311 1.0668,1.0865554 v 0.385233 c -2.301523,0.3951107 -3.101623,0.8791224 -3.101623,1.8471428 0,0.701322 0.563034,1.1557 1.432278,1.1557 0.681567,0 1.293989,-0.276578 1.718734,-0.780344 0.158045,0.503766 0.404989,0.701322 0.869245,0.701322 0.4445,0 0.908755,-0.286456 0.908755,-0.572911 z M 45.980113,9.1832146 c 0,0.5926657 -0.02963,0.7309547 -0.197555,0.9877754 -0.246945,0.365478 -0.701323,0.612423 -1.126067,0.612423 -0.4445,0 -0.780345,-0.325967 -0.780345,-0.770467 0,-0.7013204 0.395111,-0.9976534 2.103967,-1.2841091 z m 6.114343,0.6025437 c 0,-0.4346217 -0.138289,-0.7704657 -0.414866,-0.9976554 -0.237067,-0.207433 -0.434623,-0.286455 -1.037167,-0.4148657 l -0.493889,-0.108656 c -0.543278,-0.118533 -0.543278,-0.118533 -0.721078,-0.217311 -0.217311,-0.09878 -0.345723,-0.3062107 -0.345723,-0.5235217 0,-0.3951117 0.375356,-0.6815667 0.918634,-0.6815667 0.375356,0 0.681567,0.128411 0.958145,0.395111 0.217311,0.2173107 0.325966,0.4148667 0.484011,0.8692444 h 0.345722 V 6.4470711 h -0.345722 l -0.286456,0.3556 c -0.3556,-0.276578 -0.7112,-0.395112 -1.205089,-0.395112 -0.869245,0 -1.442156,0.5729117 -1.442156,1.4322784 0,0.3852327 0.128411,0.7111994 0.345722,0.9087544 0.227189,0.2074337 0.454378,0.3062117 1.047045,0.4445007 l 0.523522,0.118533 c 0.780345,0.1876767 1.056923,0.3852327 1.056923,0.7803424 0,0.464256 -0.404989,0.790223 -0.987778,0.790223 -0.829734,0 -1.4224,-0.5334 -1.659467,-1.5211764 H 48.439678 V 11.227913 H 48.7854 l 0.345722,-0.404989 c 0.404989,0.325967 0.859367,0.484011 1.353256,0.484011 0.968023,0 1.610078,-0.602544 1.610078,-1.5211767 z m 4.622795,0.06914 -0.385233,-0.148167 c -0.316089,0.7111987 -0.651933,0.9976547 -1.165578,0.9976547 -0.790222,0 -1.284111,-0.7210777 -1.284111,-1.8767761 0,-1.1952114 0.484011,-1.9953111 1.214966,-1.9953111 0.296334,0 0.553156,0.138289 0.553156,0.296333 0,0.02963 -0.01975,0.05927 -0.05927,0.118534 -0.158044,0.1876777 -0.197555,0.2864547 -0.197555,0.4543777 0,0.3259657 0.246944,0.5531547 0.592667,0.5531547 0.345722,0 0.602544,-0.276578 0.602544,-0.6716887 0,-0.6618107 -0.661811,-1.1754554 -1.540933,-1.1754554 -1.284112,0 -2.202745,1.0569224 -2.202745,2.5287108 0,1.4026431 0.839611,2.3706651 2.064456,2.3706651 0.879122,0 1.382889,-0.404989 1.807633,-1.4520317 z m 5.541418,0.8000987 c 0,-0.06915 -0.04939,-0.118534 -0.09878,-0.118534 -0.138289,0 -0.365478,0.108656 -0.424744,0.108656 -0.276578,0 -0.375356,-0.187678 -0.375356,-0.6815667 V 7.9781252 c 0,-1.2643541 -0.701322,-1.5705661 -1.837267,-1.5705661 -1.106311,0 -1.926167,0.5235227 -1.926167,1.2347224 0,0.3753557 0.227189,0.6124217 0.572911,0.6124217 0.306211,0 0.5334,-0.207433 0.5334,-0.5037657 0,-0.177801 -0.217311,-0.4840117 -0.217311,-0.5334007 0,-0.207433 0.404989,-0.385233 0.879123,-0.385233 0.661811,0 1.0668,0.217311 1.0668,1.0865554 v 0.385233 c -2.301523,0.3951107 -3.101623,0.8791224 -3.101623,1.8471428 0,0.701322 0.563033,1.1557 1.432278,1.1557 0.681567,0 1.293989,-0.276578 1.718734,-0.780344 0.158044,0.503766 0.404989,0.701322 0.869244,0.701322 0.4445,0 0.908756,-0.286456 0.908756,-0.572911 z M 60.43128,9.1832156 c 0,0.5926657 -0.02963,0.7309547 -0.197556,0.9877754 -0.246944,0.365478 -0.701322,0.612423 -1.126067,0.612423 -0.4445,0 -0.780344,-0.325967 -0.780344,-0.770467 0,-0.7013204 0.395111,-0.9976534 2.103967,-1.2841091 z M 65.222,11.158769 v -0.3556 h -0.167922 c -0.642056,0 -0.651934,-0.06914 -0.651934,-0.464255 V 3.8788495 l -1.827389,0.1086556 v 0.4247445 h 0.484011 c 0.3556,0 0.414867,0.069145 0.414867,0.493889 v 5.4327754 c 0,0.395111 -0.0099,0.464255 -0.642056,0.464255 h -0.167922 v 0.3556 z"
       id="text1"
       aria-label="Pascal" />
    <rect
       style="fill:none;fill-opacity:1;stroke:#000000;stroke-width:0.169907;stroke-linejoin:round;stroke-dasharray:none;stroke-opacity:0.0637355;paint-order:stroke fill markers"
       id="rect2-0"
       width="96.830093"
       height="117.88809"
       x="2.3849533"
       y="2.0127268" />
    <rect
       style="fill:#00391f;fill-opacity:0.0527585;stroke:#004021;stroke-width:0.273774;stroke-linejoin:round;stroke-dasharray:none;stroke-opacity:1"
       id="rect9"
       width="18.133738"
       height="28.047924"
       x="4.7696257"
       y="13.592005"
       ry="2.1670582" />
    <rect
       style="fill:#00391f;fill-opacity:0.0527585;stroke:#004021;stroke-width:0.273774;stroke-linejoin:round;stroke-dasharray:none;stroke-opacity:1"
       id="rect9-7"
       width="18.133738"
       height="28.047924"
       x="49.587891"
       y="13.612572"
       ry="2.1670582" />
    <rect
       style="fill:#00391f;fill-opacity:0.0527585;stroke:#004021;stroke-width:0.273774;stroke-linejoin:round;stroke-dasharray:none;stroke-opacity:1"
       id="rect9-7-9"
       width="18.133738"
       height="28.047924"
       x="27.184563"
       y="13.612572"
       ry="2.1670582" />
    <path
       style="font-size:3.88056px;font-family:'TeX Gyre Cursor';-inkscape-font-specification:'TeX Gyre Cursor';letter-spacing:0px;stroke-width:0.165;stroke-linejoin:round;paint-order:stroke fill markers"
       d="m 9.9713365,27.803713 c 0,-0.0388 -0.034925,-0.07373 -0.073731,-0.07373 -0.027164,0 -0.038806,0.0078 -0.06985,0.0388 -0.2017891,0.186267 -0.4423838,0.279401 -0.7256647,0.279401 -0.422981,0 -0.7217841,-0.291042 -0.7217841,-0.698501 0,-0.426862 0.2949225,-0.717904 0.7217841,-0.717904 0.325967,0 0.6014868,0.162984 0.617009,0.368653 0.00776,0.06597 0.031045,0.09313 0.081492,0.09313 0.050447,0 0.077611,-0.03493 0.077611,-0.104775 v -0.353131 c 0,-0.07373 -0.027164,-0.108656 -0.077611,-0.108656 -0.054328,0 -0.081492,0.03493 -0.081492,0.108656 v 0.05045 c -0.1591029,-0.1397 -0.3686532,-0.213431 -0.6053673,-0.213431 -0.519995,0 -0.8925288,0.368654 -0.8925288,0.880887 0,0.496712 0.3647726,0.853724 0.873126,0.853724 0.2561169,0 0.5122339,-0.07761 0.7101425,-0.213431 0.1086556,-0.07373 0.166864,-0.143581 0.166864,-0.190148 z m 2.2235545,0.259998 c 0,-0.05045 -0.03492,-0.07761 -0.108655,-0.07761 h -0.62089 v -2.184756 h -0.613128 c -0.06985,0 -0.104775,0.02716 -0.104775,0.07761 0,0.05433 0.03492,0.08149 0.104775,0.08149 h 0.454025 V 27.9861 h -0.620889 c -0.06985,0 -0.104775,0.02716 -0.104775,0.07761 0,0.05433 0.03492,0.08149 0.104775,0.08149 h 1.400882 c 0.06985,0 0.108655,-0.02716 0.108655,-0.08149 z m 2.405942,-0.714023 c 0,-0.492831 -0.388056,-0.877007 -0.884768,-0.877007 -0.492831,0 -0.884768,0.388056 -0.884768,0.865365 0,0.48507 0.391937,0.869246 0.884768,0.869246 0.488951,0 0.884768,-0.384176 0.884768,-0.857604 z m -0.159103,0 c 0,0.384175 -0.325967,0.698501 -0.725665,0.698501 -0.403578,0 -0.725665,-0.314326 -0.725665,-0.710143 0,-0.391936 0.322087,-0.706262 0.725665,-0.706262 0.407459,0 0.725665,0.310445 0.725665,0.717904 z m 2.514597,0.454025 c 0,-0.0388 -0.03493,-0.07373 -0.07373,-0.07373 -0.02716,0 -0.03881,0.0078 -0.06985,0.0388 -0.201789,0.186267 -0.442384,0.279401 -0.725665,0.279401 -0.422981,0 -0.721784,-0.291042 -0.721784,-0.698501 0,-0.426862 0.294923,-0.717904 0.721784,-0.717904 0.325967,0 0.601487,0.162984 0.617009,0.368653 0.0078,0.06597 0.03104,0.09313 0.08149,0.09313 0.05045,0 0.07761,-0.03493 0.07761,-0.104775 v -0.353131 c 0,-0.07373 -0.02716,-0.108656 -0.07761,-0.108656 -0.05433,0 -0.08149,0.03493 -0.08149,0.108656 v 0.05045 c -0.159103,-0.1397 -0.368653,-0.213431 -0.605367,-0.213431 -0.519995,0 -0.892529,0.368654 -0.892529,0.880887 0,0.496712 0.364773,0.853724 0.873126,0.853724 0.256117,0 0.512234,-0.07761 0.710143,-0.213431 0.108655,-0.07373 0.166864,-0.143581 0.166864,-0.190148 z m 2.351613,0.259998 c 0,-0.05045 -0.03492,-0.07761 -0.104775,-0.07761 H 19.02854 l -0.803276,-0.791635 0.609248,-0.508353 h 0.182386 c 0.06985,0 0.104775,-0.02716 0.104775,-0.08149 0,-0.05045 -0.03493,-0.07761 -0.104775,-0.07761 h -0.504473 c -0.06985,0 -0.104775,0.02716 -0.104775,0.07761 0,0.05433 0.03493,0.08149 0.104775,0.08149 h 0.08537 l -0.671337,0.570442 v -1.45521 h -0.368653 c -0.06985,0 -0.104776,0.02716 -0.104776,0.07761 0,0.05433 0.03493,0.08149 0.104776,0.08149 h 0.20955 V 27.9861 h -0.20955 c -0.06985,0 -0.104776,0.02716 -0.104776,0.07761 0,0.05433 0.03493,0.08149 0.104776,0.08149 h 0.368653 v -0.698501 l 0.178505,-0.151342 0.698501,0.69074 h -0.108655 c -0.06985,0 -0.104776,0.02716 -0.104776,0.07761 0,0.05433 0.03493,0.08149 0.104776,0.08149 h 0.508353 c 0.06985,0 0.104775,-0.02716 0.104775,-0.08149 z"
       id="text7"
       aria-label="clock" />
    <path
       style="font-size:3.88056px;font-family:'TeX Gyre Cursor';-inkscape-font-specification:'TeX Gyre Cursor';letter-spacing:0px;stroke-width:0.165;stroke-linejoin:round;paint-order:stroke fill markers"
       d="m 31.234728,28.074796 c 0,-0.05045 -0.03493,-0.07761 -0.108655,-0.07761 h -0.62089 v -1.45909 h -0.617009 c -0.06985,0 -0.104775,0.02716 -0.104775,0.07761 0,0.05433 0.03493,0.08149 0.104775,0.08149 h 0.457906 v 1.299987 h -0.62089 c -0.06985,0 -0.104775,0.02716 -0.104775,0.07761 0,0.05433 0.03493,0.08149 0.104775,0.08149 h 1.400883 c 0.06985,0 0.108655,-0.02716 0.108655,-0.08149 z M 30.6216,25.987055 c 0,-0.108656 -0.08537,-0.197908 -0.194028,-0.197908 -0.104775,0 -0.194028,0.08925 -0.194028,0.194028 0,0.104775 0.08925,0.194028 0.194028,0.194028 0.104775,0 0.194028,-0.08925 0.194028,-0.190148 z m 3.069517,2.087741 c 0,-0.05045 -0.03492,-0.07761 -0.104775,-0.07761 h -0.131939 v -0.985662 c 0,-0.298803 -0.263878,-0.527756 -0.609248,-0.527756 -0.240595,0 -0.380295,0.07373 -0.605368,0.322086 v -0.267758 h -0.291042 c -0.06985,0 -0.104775,0.02716 -0.104775,0.07761 0,0.05433 0.03493,0.08149 0.104775,0.08149 h 0.131939 v 1.299987 h -0.174625 c -0.07373,0 -0.108655,0.02716 -0.108655,0.07761 0,0.05433 0.03492,0.08149 0.108655,0.08149 h 0.508354 c 0.06985,0 0.104775,-0.02716 0.104775,-0.08149 0,-0.05045 -0.03493,-0.07761 -0.104775,-0.07761 h -0.174626 v -0.981781 c 0.174626,-0.232834 0.287162,-0.372534 0.589845,-0.372534 0.240595,0 0.465668,0.147461 0.465668,0.395817 v 0.958498 h -0.131939 c -0.06985,0 -0.104776,0.02716 -0.104776,0.07761 0,0.05433 0.03493,0.08149 0.104776,0.08149 h 0.422981 c 0.06985,0 0.104775,-0.02716 0.104775,-0.08149 z m 2.157585,-0.368653 c 0,-0.27552 -0.236714,-0.426861 -0.698501,-0.500592 -0.333728,-0.05433 -0.574322,-0.03881 -0.574322,-0.271639 0,-0.166864 0.217311,-0.291042 0.504472,-0.291042 0.294923,0 0.496712,0.112536 0.516115,0.287161 0.0078,0.06209 0.03493,0.08925 0.08149,0.08925 0.05045,0 0.07761,-0.03492 0.07761,-0.104775 V 26.64675 c 0,-0.07373 -0.02716,-0.108655 -0.07761,-0.108655 -0.05045,0 -0.08149,0.04269 -0.08149,0.108655 v 0.01552 c -0.13582,-0.120298 -0.310445,-0.178506 -0.531637,-0.178506 -0.380295,0 -0.663576,0.186267 -0.663576,0.438503 0,0.228953 0.131939,0.368653 0.682979,0.430742 0.4191,0.04657 0.589845,0.170745 0.589845,0.349251 0,0.205669 -0.256117,0.357011 -0.597606,0.357011 -0.329848,0 -0.597606,-0.143581 -0.597606,-0.322086 v -0.02716 c 0,-0.05045 -0.03104,-0.08537 -0.07761,-0.08537 -0.05433,0 -0.08149,0.03493 -0.08149,0.104776 v 0.322086 c 0,0.06985 0.02716,0.104775 0.08149,0.104775 0.05045,0 0.07761,-0.03493 0.07761,-0.104775 v -0.04269 c 0.162983,0.143581 0.357011,0.20955 0.609247,0.20955 0.438504,0 0.76059,-0.217311 0.76059,-0.512234 z m 2.417583,-0.322086 c 0,-0.178506 -0.01164,-0.252237 -0.06597,-0.380295 -0.139701,-0.322087 -0.450145,-0.519995 -0.822679,-0.519995 -0.496712,0 -0.884768,0.360892 -0.884768,0.83044 0,0.504472 0.41522,0.90417 0.939096,0.90417 0.353131,0 0.818798,-0.182386 0.818798,-0.318206 0,-0.04269 -0.03493,-0.07761 -0.07373,-0.07761 -0.0194,0 -0.03493,0.0078 -0.06209,0.02716 -0.155222,0.124178 -0.438503,0.20955 -0.679098,0.20955 -0.4191,0 -0.729545,-0.267758 -0.783873,-0.675217 z m -0.162983,-0.159103 h -1.45133 c 0.06985,-0.357012 0.349251,-0.582084 0.725665,-0.582084 0.376414,0 0.663576,0.228953 0.725665,0.582084 z m 2.572805,-0.48507 c 0,-0.03493 -0.02328,-0.06597 -0.08925,-0.120298 -0.100895,-0.08537 -0.186267,-0.120297 -0.298803,-0.120297 -0.197909,0 -0.388056,0.108656 -0.748948,0.434623 v -0.395817 h -0.450145 c -0.06597,0 -0.104775,0.03104 -0.104775,0.07761 0,0.05045 0.0388,0.08149 0.104775,0.08149 h 0.291042 v 1.299987 h -0.372534 c -0.06597,0 -0.104775,0.03104 -0.104775,0.07761 0,0.05045 0.03881,0.08149 0.104775,0.08149 h 1.226257 c 0.06597,0 0.104775,-0.03104 0.104775,-0.07761 0,-0.05045 -0.03881,-0.08149 -0.104775,-0.08149 h -0.69462 v -0.857604 c 0.426861,-0.391936 0.562681,-0.481189 0.737306,-0.481189 0.08537,0 0.162984,0.04269 0.256117,0.131939 0.02716,0.02716 0.03493,0.03105 0.06209,0.03105 0.04657,0 0.08149,-0.03493 0.08149,-0.08149 z m 2.165346,1.218496 c 0,-0.03881 -0.03493,-0.07761 -0.07373,-0.07761 -0.0194,0 -0.03104,0.0039 -0.06209,0.02328 -0.151342,0.08925 -0.426862,0.155222 -0.644173,0.155222 -0.267759,0 -0.434623,-0.128058 -0.434623,-0.325967 v -1.036109 h 0.853723 c 0.06985,0 0.104775,-0.02716 0.104775,-0.08149 0,-0.05045 -0.03493,-0.07761 -0.104775,-0.07761 h -0.853723 v -0.461787 c 0,-0.07373 -0.02328,-0.104775 -0.07761,-0.104775 -0.05433,0 -0.08149,0.03492 -0.08149,0.104775 v 0.461787 h -0.287161 c -0.07373,0 -0.108656,0.02716 -0.108656,0.07761 0,0.05433 0.03493,0.08149 0.108656,0.08149 h 0.287161 v 1.04387 c 0,0.291042 0.236714,0.477309 0.601487,0.477309 0.329848,0 0.772231,-0.147461 0.772231,-0.259997 z"
       id="text7-8"
       aria-label="insert&#10;" />
    <path
       style="font-size:3.88056px;font-family:'TeX Gyre Cursor';-inkscape-font-specification:'TeX Gyre Cursor';letter-spacing:0px;stroke-width:0.165;stroke-linejoin:round;paint-order:stroke fill markers"
       d="m 53.794818,25.949136 c 0,-0.0388 -0.02328,-0.06597 -0.06985,-0.07761 -0.124178,-0.02328 -0.391936,-0.05045 -0.539397,-0.05045 -0.349251,0 -0.597607,0.20567 -0.597607,0.48895 v 0.236715 h -0.341489 c -0.06985,0 -0.104775,0.02716 -0.104775,0.07761 0,0.05433 0.03493,0.08149 0.104775,0.08149 h 0.341489 v 1.299987 h -0.380295 c -0.06985,0 -0.104775,0.02716 -0.104775,0.07761 0,0.05433 0.03493,0.08149 0.104775,0.08149 h 1.230138 c 0.06597,0 0.104775,-0.02716 0.104775,-0.08149 0,-0.05045 -0.03493,-0.07761 -0.104775,-0.07761 h -0.69074 v -1.299987 h 0.733426 c 0.06985,0 0.104775,-0.02716 0.104775,-0.08149 0,-0.05045 -0.03493,-0.07761 -0.104775,-0.07761 h -0.733426 v -0.236715 c 0,-0.194028 0.174626,-0.329847 0.430742,-0.329847 0.08537,0 0.236715,0.01164 0.34149,0.02328 0.186267,0.02328 0.194028,0.02328 0.194028,0.02328 0.04657,0 0.08149,-0.03105 0.08149,-0.07761 z m 2.328331,0.799396 c 0,-0.03493 -0.02328,-0.06597 -0.08925,-0.120298 -0.100895,-0.08537 -0.186267,-0.120297 -0.298803,-0.120297 -0.197909,0 -0.388056,0.108656 -0.748949,0.434623 v -0.395817 h -0.450144 c -0.06597,0 -0.104776,0.03104 -0.104776,0.07761 0,0.05045 0.03881,0.08149 0.104776,0.08149 h 0.291042 v 1.299987 h -0.372534 c -0.06597,0 -0.104775,0.03105 -0.104775,0.07761 0,0.05045 0.03881,0.08149 0.104775,0.08149 h 1.226257 c 0.06597,0 0.104775,-0.03104 0.104775,-0.07761 0,-0.05045 -0.03881,-0.08149 -0.104775,-0.08149 h -0.694621 v -0.857604 c 0.426862,-0.391936 0.562682,-0.481189 0.737307,-0.481189 0.08537,0 0.162983,0.04269 0.256117,0.131939 0.02716,0.02716 0.03493,0.03104 0.06209,0.03104 0.04657,0 0.08149,-0.03493 0.08149,-0.08149 z m 2.246838,0.644173 c 0,-0.178506 -0.01164,-0.252237 -0.06597,-0.380295 -0.1397,-0.322087 -0.450145,-0.519995 -0.822678,-0.519995 -0.496712,0 -0.884768,0.360892 -0.884768,0.83044 0,0.504472 0.41522,0.90417 0.939095,0.90417 0.353131,0 0.818799,-0.182386 0.818799,-0.318206 0,-0.04269 -0.03493,-0.07761 -0.07373,-0.07761 -0.0194,0 -0.03493,0.0078 -0.06209,0.02716 -0.155222,0.124178 -0.438503,0.20955 -0.679098,0.20955 -0.4191,0 -0.729545,-0.267759 -0.783873,-0.675217 z m -0.162984,-0.159103 h -1.451329 c 0.06985,-0.357012 0.34925,-0.582084 0.725665,-0.582084 0.376414,0 0.663575,0.228953 0.725664,0.582084 z m 2.491314,0.159103 c 0,-0.178506 -0.01164,-0.252237 -0.06597,-0.380295 -0.1397,-0.322087 -0.450145,-0.519995 -0.822678,-0.519995 -0.496712,0 -0.884768,0.360892 -0.884768,0.83044 0,0.504472 0.41522,0.90417 0.939095,0.90417 0.353131,0 0.818799,-0.182386 0.818799,-0.318206 0,-0.04269 -0.03492,-0.07761 -0.07373,-0.07761 -0.0194,0 -0.03493,0.0078 -0.06209,0.02716 -0.155222,0.124178 -0.438503,0.20955 -0.679098,0.20955 -0.4191,0 -0.729545,-0.267759 -0.783873,-0.675217 z m -0.162984,-0.159103 h -1.451329 c 0.06985,-0.357012 0.34925,-0.582084 0.725665,-0.582084 0.376414,0 0.663575,0.228953 0.725664,0.582084 z m 2.371017,0.931334 v -0.376414 c 0,-0.06985 -0.02716,-0.104775 -0.07761,-0.104775 -0.05433,0 -0.08149,0.03493 -0.08149,0.104775 v 0.217311 h -1.074919 l 1.17581,-1.31939 v -0.1397 h -1.358196 v 0.372533 c 0,0.06985 0.02716,0.104775 0.08149,0.104775 0.05045,0 0.07761,-0.03493 0.07761,-0.104775 v -0.21343 h 0.974021 l -1.168049,1.31939 v 0.1397 z m 2.448627,-0.772231 c 0,-0.178506 -0.01164,-0.252237 -0.06597,-0.380295 -0.1397,-0.322087 -0.450145,-0.519995 -0.822678,-0.519995 -0.496712,0 -0.884768,0.360892 -0.884768,0.83044 0,0.504472 0.41522,0.90417 0.939096,0.90417 0.353131,0 0.818798,-0.182386 0.818798,-0.318206 0,-0.04269 -0.03493,-0.07761 -0.07373,-0.07761 -0.0194,0 -0.03492,0.0078 -0.06209,0.02716 -0.155222,0.124178 -0.438503,0.20955 -0.679098,0.20955 -0.4191,0 -0.729545,-0.267759 -0.783873,-0.675217 z m -0.162984,-0.159103 h -1.451329 c 0.06985,-0.357012 0.34925,-0.582084 0.725665,-0.582084 0.376414,0 0.663575,0.228953 0.725664,0.582084 z"
       id="text7-8-5"
       aria-label="freeze&#10;" />
    <path
       style="font-size:2.82222px;font-family:'TeX Gyre Schola Math';-inkscape-font-specification:'TeX Gyre Schola Math';letter-spacing:0px;white-space:pre;inline-size:21.6356;fill:#004021;stroke-width:0.295463"
       d="m 43.521381,123.0979 v -0.11345 h -0.595653 v 0.11345 h 0.05358 c 0.110306,0 0.154428,0.0347 0.154428,0.11346 0,0.0315 -0.01261,0.0788 -0.02521,0.11661 l -0.267886,0.71857 -0.308857,-0.80997 c -0.0095,-0.0221 -0.01261,-0.0378 -0.01261,-0.0662 0,-0.0567 0.02836,-0.0725 0.132367,-0.0725 h 0.07564 v -0.11345 h -0.70596 v 0.11345 h 0.05358 c 0.100851,0 0.132368,0.0252 0.163884,0.11661 l 0.02836,0.0819 -0.277342,0.73432 -0.305706,-0.79105 c -0.0063,-0.0221 -0.01261,-0.0504 -0.01261,-0.0693 0,-0.0536 0.03467,-0.0725 0.129216,-0.0725 h 0.05673 v -0.11345 h -0.693353 v 0.11345 h 0.05673 c 0.08825,0 0.119761,0.0284 0.163883,0.15443 l 0.472741,1.24804 h 0.110306 l 0.375041,-0.99591 0.384496,0.99591 h 0.0977 l 0.441224,-1.16294 c 0.06934,-0.18595 0.104003,-0.23953 0.214309,-0.23953 z m 0.958087,1.35519 v -0.11345 h -0.03782 c -0.204854,0 -0.223764,-0.0221 -0.223764,-0.14813 v -1.20706 l -0.592501,0.0347 v 0.13552 h 0.160732 c 0.116609,0 0.135519,0.0252 0.135519,0.15758 v 0.8793 c 0,0.12607 -0.01891,0.14813 -0.220613,0.14813 h -0.03782 v 0.11345 z m -0.252128,-1.92247 c 0,-0.0851 -0.07249,-0.15758 -0.157581,-0.15758 -0.08509,0 -0.15758,0.0725 -0.15758,0.15758 0,0.0851 0.07249,0.15758 0.154429,0.15758 0.08824,0 0.160732,-0.0693 0.160732,-0.15758 z m 1.238576,1.92247 v -0.11345 h -0.05358 c -0.204854,0 -0.208006,-0.0221 -0.208006,-0.14813 v -2.06115 l -0.583047,0.0347 v 0.13552 h 0.154429 c 0.113457,0 0.132367,0.0221 0.132367,0.15758 v 1.73338 c 0,0.12606 -0.0031,0.14813 -0.204854,0.14813 h -0.05358 v 0.11345 z m 1.834229,0 v -0.13551 h -0.05673 c -0.170187,0 -0.195399,-0.0315 -0.195399,-0.23007 v -1.95715 l -0.617715,0.0347 v 0.13552 h 0.185945 c 0.113457,0 0.135519,0.0221 0.135519,0.15758 v 0.71226 c -0.11661,-0.16073 -0.252128,-0.23322 -0.434922,-0.23322 -0.356131,0 -0.627169,0.34353 -0.627169,0.79736 0,0.44753 0.261583,0.76584 0.627169,0.76584 0.198551,0 0.33407,-0.0851 0.434922,-0.27419 v 0.24898 z m -0.551531,-0.72802 c 0,0.36559 -0.144974,0.60511 -0.371889,0.60511 -0.220612,0 -0.356131,-0.208 -0.356131,-0.55783 0,-0.18595 0.01891,-0.32777 0.05988,-0.43492 0.05358,-0.13867 0.170186,-0.23007 0.299402,-0.23007 0.129216,0 0.252128,0.0945 0.308857,0.23952 0.03782,0.0945 0.05988,0.22692 0.05988,0.37819 z m 2.080057,0.32777 -0.110306,-0.0599 c -0.129216,0.24267 -0.261583,0.33722 -0.472741,0.33722 -0.261583,0 -0.438073,-0.18909 -0.438073,-0.5862 h 1.02112 c 0,-0.47274 -0.261583,-0.80681 -0.64923,-0.80681 -0.403406,0 -0.70596,0.34983 -0.70596,0.82257 0,0.44123 0.286796,0.74063 0.712263,0.74063 0.299402,0 0.513711,-0.14813 0.642927,-0.44753 z m -0.337221,-0.56099 c 0,0.0914 -0.02837,0.11661 -0.129216,0.11661 h -0.551531 c 0,-0.33722 0.170187,-0.53577 0.362435,-0.53577 0.192247,0 0.318312,0.16704 0.318312,0.41916 z m 1.818469,-0.30255 c 0,-0.15128 -0.107154,-0.25213 -0.274189,-0.25213 -0.198551,0 -0.37189,0.16073 -0.472741,0.43808 v -0.3908 l -0.557834,0.0347 v 0.13552 h 0.129216 c 0.116609,0 0.135519,0.0221 0.135519,0.15758 v 0.8793 c 0,0.12606 -0.0031,0.14813 -0.208006,0.14813 h -0.04412 v 0.11345 h 0.841478 v -0.11345 h -0.05988 c -0.201703,0 -0.23637,-0.0221 -0.23637,-0.14813 v -0.15758 c 0,-0.23637 0.04412,-0.47589 0.122912,-0.65553 0.07564,-0.17649 0.182793,-0.27419 0.315161,-0.28995 -0.04412,0.0504 -0.05673,0.0819 -0.05673,0.14182 0,0.10085 0.07249,0.17334 0.173338,0.17334 0.113458,0 0.192248,-0.0851 0.192247,-0.21431 z m 1.73653,-0.11346 c 0,-0.10715 -0.08509,-0.18279 -0.208007,-0.18279 -0.100851,0 -0.15758,0.0315 -0.302554,0.16388 -0.132367,-0.0882 -0.233218,-0.11976 -0.390799,-0.11976 -0.375041,0 -0.620866,0.20801 -0.620866,0.52317 0,0.18594 0.100852,0.34668 0.264735,0.42231 -0.211157,0.0473 -0.299402,0.14183 -0.299402,0.31516 0,0.13867 0.06303,0.22062 0.211157,0.27104 -0.195399,0.0693 -0.289947,0.17019 -0.289947,0.2994 0,0.20801 0.242673,0.32462 0.664988,0.32462 0.526318,0 0.791053,-0.16704 0.791053,-0.49795 0,-0.15758 -0.07249,-0.28365 -0.189097,-0.33092 -0.08194,-0.0315 -0.182792,-0.0441 -0.400253,-0.0441 h -0.321464 c -0.173338,0 -0.182793,-0.009 -0.220612,-0.0284 -0.02206,-0.0126 -0.03782,-0.0473 -0.03782,-0.0819 0,-0.0945 0.08509,-0.13552 0.296251,-0.14182 0.299402,-0.006 0.346676,-0.0126 0.450679,-0.0599 0.189097,-0.0851 0.296251,-0.24898 0.296251,-0.45699 0,-0.12606 -0.02836,-0.20485 -0.116609,-0.30885 0.05358,-0.0567 0.08194,-0.0756 0.107155,-0.0756 0.03467,0 0.03782,0.16073 0.173338,0.16073 0.0788,0 0.141823,-0.0662 0.141823,-0.15128 z m -0.595654,0.3782 c 0,0.24582 -0.119761,0.39395 -0.321464,0.39395 -0.195399,0 -0.318312,-0.14813 -0.318312,-0.3845 0,-0.24898 0.119761,-0.3908 0.330919,-0.3908 0.198551,0 0.308857,0.13867 0.308857,0.38135 z m 0.195399,1.22597 c 0,0.17964 -0.204854,0.28364 -0.557833,0.28364 -0.264735,0 -0.416012,-0.0788 -0.416012,-0.22061 0,-0.104 0.05673,-0.17334 0.208006,-0.25213 h 0.233218 c 0.261584,0 0.280493,0 0.327767,0.006 0.126064,0.0126 0.204854,0.0819 0.204854,0.18279 z m 2.095813,-0.38765 c 0,-0.0221 -0.01576,-0.0378 -0.03151,-0.0378 -0.04412,0 -0.116609,0.0347 -0.135518,0.0347 -0.08824,0 -0.119762,-0.0599 -0.119762,-0.21746 v -0.63347 c 0,-0.40341 -0.223763,-0.50111 -0.586197,-0.50111 -0.35298,0 -0.614563,0.16704 -0.614563,0.39395 0,0.11976 0.07249,0.1954 0.182792,0.1954 0.0977,0 0.170187,-0.0662 0.170187,-0.16073 0,-0.0567 -0.06934,-0.15443 -0.06934,-0.17019 0,-0.0662 0.129216,-0.12291 0.280493,-0.12291 0.211158,0 0.340374,0.0693 0.340374,0.34668 v 0.12291 c -0.734325,0.12606 -0.989604,0.28049 -0.989604,0.58935 0,0.22376 0.179641,0.36874 0.456983,0.36874 0.217461,0 0.412859,-0.0883 0.548379,-0.24898 0.05042,0.16073 0.129216,0.22377 0.277341,0.22377 0.141822,0 0.289947,-0.0914 0.289947,-0.1828 z m -0.583046,-0.46959 c 0,0.1891 -0.0095,0.23322 -0.06304,0.31516 -0.0788,0.11661 -0.223764,0.1954 -0.359283,0.1954 -0.141823,0 -0.248977,-0.104 -0.248977,-0.24582 0,-0.22377 0.126065,-0.31831 0.671292,-0.40971 z m 1.994964,-0.63347 c 0,-0.15128 -0.10716,-0.25213 -0.27419,-0.25213 -0.198551,0 -0.371889,0.16073 -0.47274,0.43808 v -0.3908 l -0.557834,0.0347 v 0.13552 h 0.129216 c 0.11661,0 0.135519,0.0221 0.135519,0.15758 v 0.8793 c 0,0.12607 -0.0031,0.14813 -0.208006,0.14813 h -0.04412 v 0.11345 h 0.841478 v -0.11345 h -0.05988 c -0.201703,0 -0.236371,-0.0221 -0.236371,-0.14813 v -0.15758 c 0,-0.23637 0.04412,-0.47589 0.122913,-0.65553 0.07564,-0.17649 0.182794,-0.27419 0.315161,-0.28995 -0.04412,0.0504 -0.05673,0.0819 -0.05673,0.14182 0,0.10085 0.07249,0.17334 0.173338,0.17334 0.113458,0 0.192247,-0.0851 0.192247,-0.21431 z m 1.774348,1.26379 v -0.13551 h -0.05673 c -0.170187,0 -0.1954,-0.0315 -0.1954,-0.23007 v -1.95715 l -0.617715,0.0347 v 0.13552 h 0.185945 c 0.113458,0 0.13552,0.0221 0.13552,0.15758 v 0.71226 c -0.116609,-0.16073 -0.252129,-0.23322 -0.434922,-0.23322 -0.356132,0 -0.627169,0.34353 -0.627169,0.79736 0,0.44753 0.261583,0.76584 0.627169,0.76584 0.198551,0 0.33407,-0.0851 0.434922,-0.27419 v 0.24898 z m -0.551531,-0.72802 c 0,0.36559 -0.144974,0.60511 -0.371889,0.60511 -0.220613,0 -0.356131,-0.208 -0.356131,-0.55783 0,-0.18595 0.01891,-0.32777 0.05988,-0.43492 0.05358,-0.13867 0.170186,-0.23007 0.299402,-0.23007 0.129216,0 0.252128,0.0945 0.308857,0.23952 0.03782,0.0945 0.05988,0.22692 0.05988,0.37819 z m 2.080058,0.32777 -0.110309,-0.0599 c -0.129216,0.24267 -0.261583,0.33722 -0.472741,0.33722 -0.261582,0 -0.438073,-0.18909 -0.438073,-0.5862 h 1.021121 c 0,-0.47274 -0.261584,-0.80681 -0.649232,-0.80681 -0.403405,0 -0.705959,0.34983 -0.705959,0.82257 0,0.44123 0.286796,0.74063 0.712263,0.74063 0.299403,0 0.513712,-0.14813 0.642928,-0.44753 z m -0.337222,-0.56099 c 0,0.0914 -0.02836,0.11661 -0.129216,0.11661 h -0.55153 c 0,-0.33722 0.170185,-0.53577 0.362434,-0.53577 0.192247,0 0.318312,0.16704 0.318312,0.41916 z m 2.316422,0.96124 v -0.11345 h -0.04412 c -0.201703,0 -0.204854,-0.0221 -0.204854,-0.14813 v -0.62087 c 0,-0.22691 -0.0095,-0.28364 -0.06619,-0.39079 -0.0788,-0.15128 -0.239523,-0.24268 -0.425467,-0.24268 -0.201703,0 -0.359283,0.0946 -0.497954,0.30256 v -0.25528 l -0.545227,0.0347 v 0.13552 h 0.113457 c 0.11661,0 0.13552,0.0221 0.13552,0.15758 v 0.8793 c 0,0.12606 -0.0031,0.14813 -0.204855,0.14813 h -0.04412 v 0.11345 h 0.797356 v -0.11345 h -0.04412 c -0.204854,0 -0.208007,-0.0221 -0.208007,-0.14813 v -0.45383 c 0,-0.15443 0.02207,-0.29625 0.05673,-0.36874 0.06619,-0.14182 0.208007,-0.23952 0.343525,-0.23952 0.08194,0 0.176491,0.0473 0.223764,0.11031 0.04727,0.0662 0.06934,0.16388 0.06934,0.31516 v 0.63662 c 0,0.12607 -0.0031,0.14813 -0.208006,0.14813 h -0.04412 v 0.11345 z"
       id="text2-7"
       aria-label="wildergarden" />
    <g
       id="g5"
       transform="translate(-0.35866675,0.01211783)"
       style="display:none">
      <rect
         style="fill:#004021;fill-opacity:0.71314;stroke:none;stroke-width:0.165;stroke-linejoin:round;stroke-opacity:1;paint-order:stroke fill markers"
         id="rect5"
         width="0.50354499"
         height="3.2309911"
         x="6.5689731"
         y="65.205353"
         ry="0.25177249" />
      <rect
         style="fill:#004021;fill-opacity:0.71314;stroke:none;stroke-width:0.165;stroke-linejoin:round;stroke-opacity:1;paint-order:stroke fill markers"
         id="rect5-8-7"
         width="0.50354499"
         height="3.2309911"
         x="7.5497513"
         y="65.205353"
         ry="0.25177249" />
      <rect
         style="fill:#004021;fill-opacity:0.71314;stroke:none;stroke-width:0.165;stroke-linejoin:round;stroke-opacity:1;paint-order:stroke fill markers"
         id="rect5-8-3"
         width="0.50354499"
         height="3.2309911"
         x="8.530529"
         y="65.205353"
         ry="0.25177249" />
      <rect
         style="fill:#004021;fill-opacity:0.71314;stroke:none;stroke-width:0.165;stroke-linejoin:round;stroke-opacity:1;paint-order:stroke fill markers"
         id="rect5-4"
         width="0.50354499"
         height="3.2309911"
         x="9.5113068"
         y="65.205353"
         ry="0.25177249" />
      <rect
         style="fill:#004021;fill-opacity:0.71314;stroke:none;stroke-width:0.165;stroke-linejoin:round;stroke-opacity:1;paint-order:stroke fill markers"
         id="rect5-8-7-0"
         width="0.50354499"
         height="3.2309911"
         x="10.492085"
         y="65.205353"
         ry="0.25177249" />
      <rect
         style="fill:#004021;fill-opacity:0.71314;stroke:none;stroke-width:0.165;stroke-linejoin:round;stroke-opacity:1;paint-order:stroke fill markers"
         id="rect5-8-3-5"
         width="0.50354499"
         height="3.2309911"
         x="11.472862"
         y="65.205353"
         ry="0.25177249" />
      <rect
         style="fill:#004021;fill-opacity:0.71314;stroke:none;stroke-width:0.165;stroke-linejoin:round;stroke-opacity:1;paint-order:stroke fill markers"
         id="rect5-9"
         width="0.50354499"
         height="3.2309911"
         x="12.453639"
         y="65.205353"
         ry="0.25177249" />
      <rect
         style="fill:#004021;fill-opacity:0.71314;stroke:none;stroke-width:0.165;stroke-linejoin:round;stroke-opacity:1;paint-order:stroke fill markers"
         id="rect5-8-7-2"
         width="0.50354499"
         height="3.2309911"
         x="13.434417"
         y="65.205353"
         ry="0.25177249" />
      <rect
         style="fill:#004021;fill-opacity:0.71314;stroke:none;stroke-width:0.165;stroke-linejoin:round;stroke-opacity:1;paint-order:stroke fill markers"
         id="rect5-8-3-2"
         width="0.50354499"
         height="3.2309911"
         x="14.415195"
         y="65.205353"
         ry="0.25177249" />
      <rect
         style="fill:#004021;fill-opacity:0.71314;stroke:none;stroke-width:0.165;stroke-linejoin:round;stroke-opacity:1;paint-order:stroke fill markers"
         id="rect5-4-4"
         width="0.50354499"
         height="3.2309911"
         x="15.395972"
         y="65.205353"
         ry="0.25177249" />
      <rect
         style="fill:#004021;fill-opacity:0.71314;stroke:none;stroke-width:0.165;stroke-linejoin:round;stroke-opacity:1;paint-order:stroke fill markers"
         id="rect5-8-7-0-7"
         width="0.50354499"
         height="3.2309911"
         x="16.376751"
         y="65.205353"
         ry="0.25177249" />
      <rect
         style="fill:#004021;fill-opacity:0.71314;stroke:none;stroke-width:0.165;stroke-linejoin:round;stroke-opacity:1;paint-order:stroke fill markers"
         id="rect5-8-3-5-7"
         width="0.50354499"
         height="3.2309911"
         x="17.357527"
         y="65.205353"
         ry="0.25177249" />
      <rect
         style="fill:#004021;fill-opacity:0.71314;stroke:none;stroke-width:0.165;stroke-linejoin:round;stroke-opacity:1;paint-order:stroke fill markers"
         id="rect5-1"
         width="0.50354499"
         height="3.2309911"
         x="18.338303"
         y="65.205353"
         ry="0.25177249" />
      <rect
         style="fill:#004021;fill-opacity:0.71314;stroke:none;stroke-width:0.165;stroke-linejoin:round;stroke-opacity:1;paint-order:stroke fill markers"
         id="rect5-8-7-28"
         width="0.50354499"
         height="3.2309911"
         x="19.31908"
         y="65.205353"
         ry="0.25177249" />
      <rect
         style="fill:#004021;fill-opacity:0.71314;stroke:none;stroke-width:0.165;stroke-linejoin:round;stroke-opacity:1;paint-order:stroke fill markers"
         id="rect5-8-3-9"
         width="0.50354499"
         height="3.2309911"
         x="20.299858"
         y="65.205353"
         ry="0.25177249" />
      <rect
         style="fill:#004021;fill-opacity:0.71314;stroke:none;stroke-width:0.165;stroke-linejoin:round;stroke-opacity:1;paint-order:stroke fill markers"
         id="rect5-4-3"
         width="0.50354499"
         height="3.2309911"
         x="21.280638"
         y="65.205353"
         ry="0.25177249" />
    </g>
    <rect
       style="fill:#00001f;fill-opacity:1;stroke:#004021;stroke-width:0.199487;stroke-linejoin:round;stroke-dasharray:none;stroke-opacity:1"
       id="rect9-5-7-0"
       width="18.136116"
       height="74.381912"
       x="41.758396"
       y="43.50383"
       ry="2.3769109" />
    <rect
       style="fill:#00391f;fill-opacity:0.0527585;stroke:#00391f;stroke-width:0.423796;stroke-linejoin:round;stroke-dasharray:none;stroke-opacity:1"
       id="rect9-5-7"
       width="34.924999"
       height="34.896538"
       x="4.8628035"
       y="43.615986"
       ry="2.6962006" />
    <path
       id="rect9-5-7-53"
       style="fill:#00391f;fill-opacity:1;stroke:none;stroke-width:0.274013;stroke-linejoin:round"
       d="m 25.311147,43.485627 12.284282,0.14783 c 0.56868,0.0069 2.251076,1.168632 2.251076,2.668834 v 29.632647 c 0,1.500201 -1.900303,2.568726 -2.468975,2.575 l -12.051342,0.132945 c -0.0031,0 0,0 0,0 z"
       sodipodi:nodetypes="cssssccc" />
    <rect
       style="fill:#00391f;fill-opacity:0.137818;stroke:#004021;stroke-width:0.31901;stroke-linejoin:round;stroke-dasharray:none;stroke-opacity:1"
       id="rect9-5"
       width="24.662376"
       height="28.001129"
       x="72.013084"
       y="13.632721"
       ry="2.1634426" />
    <path
       style="font-size:3.175px;font-family:'TeX Gyre Cursor';-inkscape-font-specification:'TeX Gyre Cursor';text-align:center;letter-spacing:0px;text-anchor:middle;stroke-width:0.165;stroke-linejoin:round;paint-order:stroke fill markers"
       d="m 8.4093311,59.01256 c 0,-0.04127 -0.02858,-0.0635 -0.08573,-0.0635 h -0.17145 v -1.787524 h -0.301625 c -0.05715,0 -0.08573,0.02223 -0.08573,0.0635 0,0.04445 0.02858,0.06667 0.08573,0.06667 h 0.17145 v 0.749299 c -0.155575,-0.225424 -0.339725,-0.330199 -0.57785,-0.330199 -0.377825,0 -0.6858,0.317499 -0.6858,0.708024 0,0.390525 0.307975,0.7112 0.6858,0.7112 0.238125,0 0.428625,-0.111125 0.57785,-0.333375 v 0.282575 h 0.301625 c 0.05715,0 0.08573,-0.02223 0.08573,-0.06668 z m -0.38735,-0.587375 c 0,0.3175 -0.254,0.574675 -0.56515,0.574675 -0.3175,0 -0.568325,-0.257175 -0.568325,-0.581025 0,-0.320675 0.250825,-0.577849 0.56515,-0.577849 0.320675,0 0.568325,0.253999 0.568325,0.584199 z m 2.0542199,0.587375 c 0,-0.04127 -0.02858,-0.0635 -0.0889,-0.0635 h -0.508 v -1.193799 h -0.504825 c -0.05715,0 -0.08573,0.02223 -0.08573,0.0635 0,0.04445 0.02858,0.06667 0.08573,0.06667 h 0.37465 v 1.063624 h -0.508 c -0.05715,0 -0.08573,0.02222 -0.08573,0.0635 0,0.04445 0.02858,0.06668 0.08573,0.06668 h 1.146175 c 0.05715,0 0.0889,-0.02223 0.0889,-0.06668 z M 9.5745511,57.304411 c 0,-0.0889 -0.06985,-0.161925 -0.15875,-0.161925 -0.08573,0 -0.15875,0.07303 -0.15875,0.15875 0,0.08572 0.07303,0.15875 0.15875,0.15875 0.08573,0 0.15875,-0.07303 0.15875,-0.155575 z m 2.6034939,0.51435 c 0,-0.04127 -0.02857,-0.0635 -0.08572,-0.0635 h -0.4826 c -0.05715,0 -0.08573,0.02223 -0.08573,0.0635 0,0.04445 0.02858,0.06667 0.08573,0.06667 h 0.2159 l -0.466724,1.063624 h -0.06033 l -0.47625,-1.063624 h 0.206375 c 0.06032,0 0.0889,-0.02222 0.0889,-0.06667 0,-0.04127 -0.02858,-0.0635 -0.0889,-0.0635 h -0.479425 c -0.05715,0 -0.08573,0.02223 -0.08573,0.0635 0,0.04445 0.02858,0.06667 0.08573,0.06667 h 0.130175 l 0.5334,1.193799 h 0.222249 l 0.52705,-1.193799 h 0.130175 c 0.05715,0 0.08572,-0.02222 0.08572,-0.06667 z m 1.708145,1.193799 c 0,-0.04127 -0.02858,-0.0635 -0.0889,-0.0635 h -0.508 v -1.193799 h -0.504825 c -0.05715,0 -0.08573,0.02223 -0.08573,0.0635 0,0.04445 0.02858,0.06667 0.08573,0.06667 h 0.37465 v 1.063624 h -0.508 c -0.05715,0 -0.08573,0.02222 -0.08573,0.0635 0,0.04445 0.02858,0.06668 0.08573,0.06668 h 1.146175 c 0.05715,0 0.0889,-0.02223 0.0889,-0.06668 z m -0.50165,-1.708149 c 0,-0.0889 -0.06985,-0.161925 -0.15875,-0.161925 -0.08573,0 -0.15875,0.07303 -0.15875,0.15875 0,0.08572 0.07303,0.15875 0.15875,0.15875 0.08573,0 0.15875,-0.07303 0.15875,-0.155575 z m 2.37172,1.406524 c 0,-0.225425 -0.193675,-0.34925 -0.5715,-0.409575 -0.27305,-0.04445 -0.4699,-0.03175 -0.4699,-0.22225 0,-0.136525 0.1778,-0.238124 0.41275,-0.238124 0.2413,0 0.4064,0.09208 0.422275,0.234949 0.0063,0.0508 0.02857,0.07303 0.06667,0.07303 0.04128,0 0.0635,-0.02858 0.0635,-0.08573 v -0.219074 c 0,-0.06032 -0.02222,-0.0889 -0.0635,-0.0889 -0.04127,0 -0.06667,0.03493 -0.06667,0.0889 v 0.0127 c -0.111125,-0.09842 -0.254,-0.14605 -0.434975,-0.14605 -0.31115,0 -0.542925,0.1524 -0.542925,0.358774 0,0.187325 0.10795,0.301625 0.5588,0.352425 0.3429,0.0381 0.4826,0.1397 0.4826,0.28575 0,0.168275 -0.20955,0.2921 -0.48895,0.2921 -0.269875,0 -0.48895,-0.117475 -0.48895,-0.263525 v -0.02223 c 0,-0.04127 -0.0254,-0.06985 -0.0635,-0.06985 -0.04445,0 -0.06668,0.02857 -0.06668,0.08572 V 58.9935 c 0,0.05715 0.02222,0.08573 0.06668,0.08573 0.04127,0 0.0635,-0.02858 0.0635,-0.08573 v -0.03493 c 0.13335,0.117475 0.2921,0.17145 0.498475,0.17145 0.358775,0 0.6223,-0.1778 0.6223,-0.4191 z m 1.939921,0.301625 c 0,-0.04127 -0.02858,-0.0635 -0.0889,-0.0635 h -0.508 v -1.193799 h -0.504825 c -0.05715,0 -0.08572,0.02223 -0.08572,0.0635 0,0.04445 0.02857,0.06667 0.08572,0.06667 h 0.37465 v 1.063624 h -0.508 c -0.05715,0 -0.08572,0.02222 -0.08572,0.0635 0,0.04445 0.02857,0.06668 0.08572,0.06668 h 1.146175 c 0.05715,0 0.0889,-0.02223 0.0889,-0.06668 z m -0.50165,-1.708149 c 0,-0.0889 -0.06985,-0.161925 -0.15875,-0.161925 -0.08572,0 -0.15875,0.07303 -0.15875,0.15875 0,0.08572 0.07303,0.15875 0.15875,0.15875 0.08573,0 0.15875,-0.07303 0.15875,-0.155575 z m 2.470145,1.123949 c 0,-0.403225 -0.3175,-0.717549 -0.7239,-0.717549 -0.403225,0 -0.7239,0.317499 -0.7239,0.708024 0,0.396875 0.320675,0.7112 0.7239,0.7112 0.40005,0 0.7239,-0.314325 0.7239,-0.701675 z m -0.130175,0 c 0,0.314325 -0.2667,0.5715 -0.593725,0.5715 -0.3302,0 -0.593725,-0.257175 -0.593725,-0.581025 0,-0.320675 0.263525,-0.577849 0.593725,-0.577849 0.333375,0 0.593725,0.253999 0.593725,0.587374 z m 2.076445,0.5842 c 0,-0.04127 -0.02858,-0.0635 -0.08573,-0.0635 h -0.10795 v -0.80645 c 0,-0.244474 -0.2159,-0.431799 -0.498475,-0.431799 -0.19685,0 -0.31115,0.06032 -0.4953,0.263524 v -0.219074 h -0.23812 c -0.05715,0 -0.08573,0.02223 -0.08573,0.0635 0,0.04445 0.02858,0.06667 0.08573,0.06667 h 0.10795 v 1.063624 h -0.142875 c -0.06032,0 -0.0889,0.02222 -0.0889,0.0635 0,0.04445 0.02858,0.06668 0.0889,0.06668 h 0.415925 c 0.05715,0 0.08572,-0.02223 0.08572,-0.06668 0,-0.04127 -0.02857,-0.0635 -0.08572,-0.0635 H 20.423496 V 58.14578 c 0.142875,-0.1905 0.23495,-0.304799 0.4826,-0.304799 0.19685,0 0.381,0.120649 0.381,0.323849 v 0.784225 h -0.10795 c -0.05715,0 -0.08573,0.02222 -0.08573,0.0635 0,0.04445 0.02858,0.06668 0.08573,0.06668 h 0.346075 c 0.05715,0 0.08573,-0.02223 0.08573,-0.06668 z m 1.765295,-0.301625 c 0,-0.225425 -0.193675,-0.34925 -0.5715,-0.409575 -0.27305,-0.04445 -0.4699,-0.03175 -0.4699,-0.22225 0,-0.136525 0.1778,-0.238124 0.41275,-0.238124 0.2413,0 0.4064,0.09208 0.422275,0.234949 0.0063,0.0508 0.02857,0.07303 0.06667,0.07303 0.04127,0 0.0635,-0.02858 0.0635,-0.08573 v -0.219074 c 0,-0.06032 -0.02222,-0.0889 -0.0635,-0.0889 -0.04127,0 -0.06667,0.03493 -0.06667,0.0889 v 0.0127 c -0.111125,-0.09842 -0.254,-0.14605 -0.434975,-0.14605 -0.31115,0 -0.542925,0.1524 -0.542925,0.358774 0,0.187325 0.10795,0.301625 0.5588,0.352425 0.3429,0.0381 0.4826,0.1397 0.4826,0.28575 0,0.168275 -0.20955,0.2921 -0.48895,0.2921 -0.269875,0 -0.48895,-0.117475 -0.48895,-0.263525 v -0.02223 c 0,-0.04127 -0.0254,-0.06985 -0.0635,-0.06985 -0.04445,0 -0.06667,0.02857 -0.06667,0.08572 V 58.9935 c 0,0.05715 0.02222,0.08573 0.06667,0.08573 0.04127,0 0.0635,-0.02858 0.0635,-0.08573 v -0.03493 c 0.13335,0.117475 0.2921,0.17145 0.498475,0.17145 0.358775,0 0.6223,-0.1778 0.6223,-0.4191 z"
       id="text7-9-4"
       aria-label="divisions"
       inkscape:label="text7-9-4" />
    <path
       style="font-size:3.88056px;font-family:'TeX Gyre Cursor';-inkscape-font-specification:'TeX Gyre Cursor';letter-spacing:0px;stroke-width:0.165;stroke-linejoin:round;paint-order:stroke fill markers"
       d="m 79.250631,27.750041 c 0,-0.05045 -0.03493,-0.07761 -0.108656,-0.07761 h -0.620889 v -2.184756 h -0.613129 c -0.06985,0 -0.104775,0.02716 -0.104775,0.07761 0,0.05433 0.03493,0.08149 0.104775,0.08149 h 0.454026 v 2.025653 h -0.62089 c -0.06985,0 -0.104775,0.02716 -0.104775,0.07761 0,0.05433 0.03493,0.08149 0.104775,0.08149 h 1.400882 c 0.06985,0 0.108656,-0.02716 0.108656,-0.08149 z m 2.374896,-0.69074 c 0,-0.178505 -0.01164,-0.252236 -0.06597,-0.380295 -0.139701,-0.322086 -0.450145,-0.519995 -0.822679,-0.519995 -0.496711,0 -0.884767,0.360892 -0.884767,0.83044 0,0.504473 0.41522,0.904171 0.939095,0.904171 0.353131,0 0.818798,-0.182387 0.818798,-0.318206 0,-0.04269 -0.03492,-0.07761 -0.07373,-0.07761 -0.0194,0 -0.03492,0.0078 -0.06209,0.02716 -0.155222,0.124177 -0.438503,0.20955 -0.679098,0.20955 -0.4191,0 -0.729545,-0.267759 -0.783872,-0.675218 z m -0.162983,-0.159103 h -1.451329 c 0.06985,-0.357011 0.34925,-0.582084 0.725664,-0.582084 0.376414,0 0.663576,0.228953 0.725665,0.582084 z m 2.572805,0.849843 c 0,-0.05045 -0.03493,-0.07761 -0.104775,-0.07761 h -0.131939 v -0.985663 c 0,-0.298804 -0.263878,-0.527757 -0.609248,-0.527757 -0.240595,0 -0.380295,0.07373 -0.605368,0.322087 v -0.267759 h -0.291042 c -0.06985,0 -0.104775,0.02716 -0.104775,0.07761 0,0.05433 0.03492,0.08149 0.104775,0.08149 h 0.13194 v 1.299988 h -0.174626 c -0.07373,0 -0.108655,0.02716 -0.108655,0.07761 0,0.05433 0.03492,0.08149 0.108655,0.08149 h 0.508354 c 0.06985,0 0.104775,-0.02716 0.104775,-0.08149 0,-0.05045 -0.03492,-0.07761 -0.104775,-0.07761 h -0.174626 v -0.981779 c 0.174626,-0.232833 0.287162,-0.372534 0.589846,-0.372534 0.240594,0 0.465667,0.147462 0.465667,0.395817 v 0.958499 h -0.131939 c -0.06985,0 -0.104775,0.02716 -0.104775,0.07761 0,0.05433 0.03492,0.08149 0.104775,0.08149 h 0.422981 c 0.06985,0 0.104775,-0.02716 0.104775,-0.08149 z m 2.409822,-1.459091 c 0,-0.05045 -0.03493,-0.07761 -0.104775,-0.07761 h -0.368654 v 0.322087 c -0.174625,-0.259998 -0.380294,-0.376415 -0.663575,-0.376415 -0.438504,0 -0.799396,0.41522 -0.799396,0.865365 0,0.450145 0.360892,0.865365 0.799396,0.865365 0.2794,0 0.48895,-0.120297 0.663575,-0.376414 v 0.403578 c 0,0.263878 -0.20955,0.477309 -0.473428,0.477309 h -0.450145 c -0.06985,0 -0.104775,0.02716 -0.104775,0.07761 0,0.05433 0.03492,0.08149 0.104775,0.08149 h 0.442384 c 0.194028,0 0.337609,-0.06597 0.473428,-0.20955 0.116417,-0.124178 0.166864,-0.244476 0.166864,-0.403579 V 26.37244 h 0.209551 c 0.06985,0 0.104775,-0.02716 0.104775,-0.08149 z m -0.473429,0.741187 c 0,0.360892 -0.291042,0.698501 -0.651934,0.698501 -0.360892,0 -0.651934,-0.337609 -0.651934,-0.706262 0,-0.364772 0.287162,-0.706262 0.651934,-0.706262 0.368654,0 0.651934,0.337609 0.651934,0.714023 z m 2.557283,0.601487 c 0,-0.0388 -0.03492,-0.07761 -0.07373,-0.07761 -0.0194,0 -0.03105,0.0039 -0.06209,0.02328 -0.151342,0.08925 -0.426862,0.155223 -0.644173,0.155223 -0.267759,0 -0.434623,-0.128059 -0.434623,-0.325967 v -1.03611 h 0.853723 c 0.06985,0 0.104776,-0.02716 0.104776,-0.08149 0,-0.05045 -0.03493,-0.07761 -0.104776,-0.07761 h -0.853723 v -0.461786 c 0,-0.07373 -0.02328,-0.104776 -0.07761,-0.104776 -0.05433,0 -0.08149,0.03493 -0.08149,0.104776 v 0.461786 h -0.287161 c -0.07373,0 -0.108656,0.02716 -0.108656,0.07761 0,0.05433 0.03492,0.08149 0.108656,0.08149 h 0.287161 v 1.043871 c 0,0.291042 0.236714,0.477309 0.601487,0.477309 0.329848,0 0.772231,-0.147462 0.772231,-0.259998 z m 2.53012,0.116417 c 0,-0.05045 -0.03493,-0.07761 -0.108656,-0.07761 h -0.174625 v -0.97014 c 0,-0.314326 -0.256117,-0.543279 -0.617009,-0.543279 -0.236714,0 -0.399698,0.08925 -0.597607,0.325967 v -0.997303 h -0.368653 c -0.06985,0 -0.104775,0.02716 -0.104775,0.07761 0,0.05433 0.03493,0.08149 0.104775,0.08149 h 0.209551 v 2.025653 H 89.22364 c -0.06985,0 -0.104775,0.02716 -0.104775,0.07761 0,0.05433 0.0388,0.08149 0.104775,0.08149 h 0.512234 c 0.06985,0 0.108655,-0.02716 0.108655,-0.08149 0,-0.05045 -0.03493,-0.07761 -0.108655,-0.07761 h -0.174626 v -0.989543 l 0.04269,-0.05045 c 0.20955,-0.248356 0.318206,-0.314326 0.535517,-0.314326 0.252236,0 0.477309,0.139701 0.477309,0.395817 v 0.958499 h -0.174625 c -0.06985,0 -0.104776,0.02716 -0.104776,0.07761 0,0.05433 0.03493,0.08149 0.104776,0.08149 h 0.508353 c 0.07373,0 0.108656,-0.02716 0.108656,-0.08149 z"
       id="text7-9"
       aria-label="length" />
    <path
       style="font-size:3.88056px;font-family:'TeX Gyre Cursor';-inkscape-font-specification:'TeX Gyre Cursor';letter-spacing:0px;fill:#ffffff;stroke-width:0.165;stroke-linejoin:round;paint-order:stroke fill markers"
       d="m 29.564376,47.173128 c 0,-0.03881 -0.03492,-0.07761 -0.07373,-0.07761 -0.0194,0 -0.03104,0.0039 -0.06209,0.02328 -0.151342,0.08925 -0.426861,0.155222 -0.644173,0.155222 -0.267758,0 -0.434622,-0.128058 -0.434622,-0.325967 v -1.036107 h 0.853723 c 0.06985,0 0.104775,-0.02716 0.104775,-0.08149 0,-0.05045 -0.03492,-0.07761 -0.104775,-0.07761 h -0.853723 v -0.46179 c 0,-0.07373 -0.02328,-0.104775 -0.07761,-0.104775 -0.05433,0 -0.08149,0.03493 -0.08149,0.104775 v 0.461787 h -0.287162 c -0.07373,0 -0.108655,0.02716 -0.108655,0.07761 0,0.05433 0.03492,0.08149 0.108655,0.08149 h 0.287162 v 1.04387 c 0,0.291042 0.236714,0.477309 0.601487,0.477309 0.329847,0 0.772231,-0.147461 0.772231,-0.259997 z m 2.491313,-1.218496 c 0,-0.03493 -0.02328,-0.06597 -0.08925,-0.120297 -0.100895,-0.08537 -0.186267,-0.120298 -0.298804,-0.120298 -0.197908,0 -0.388056,0.108656 -0.748948,0.434623 v -0.395817 h -0.450145 c -0.06597,0 -0.104775,0.03104 -0.104775,0.07761 0,0.05045 0.03881,0.08149 0.104775,0.08149 h 0.291042 v 1.299987 h -0.372533 c -0.06597,0 -0.104775,0.03104 -0.104775,0.07761 0,0.05045 0.0388,0.08149 0.104775,0.08149 h 1.226257 c 0.06597,0 0.104775,-0.03104 0.104775,-0.07761 0,-0.05045 -0.03881,-0.08149 -0.104775,-0.08149 h -0.694621 v -0.857603 c 0.426862,-0.391937 0.562682,-0.48119 0.737307,-0.48119 0.08537,0 0.162983,0.04269 0.256117,0.131939 0.02716,0.02716 0.03493,0.03105 0.06209,0.03105 0.04657,0 0.08149,-0.03493 0.08149,-0.08149 z m 2.200272,1.334913 c 0,-0.05045 -0.03493,-0.07761 -0.108656,-0.07761 h -0.620889 v -1.45909 h -0.617009 c -0.06985,0 -0.104775,0.02716 -0.104775,0.07761 0,0.05433 0.03492,0.08149 0.104775,0.08149 h 0.457906 v 1.299987 h -0.62089 c -0.06985,0 -0.104775,0.02716 -0.104775,0.07761 0,0.05433 0.03492,0.08149 0.104775,0.08149 h 1.400882 c 0.06985,0 0.108656,-0.02716 0.108656,-0.08149 z m -0.613128,-2.087742 c 0,-0.108655 -0.08537,-0.197908 -0.194028,-0.197908 -0.104776,0 -0.194028,0.08925 -0.194028,0.194028 0,0.104775 0.08925,0.194028 0.194028,0.194028 0.104775,0 0.194028,-0.08925 0.194028,-0.190148 z m 3.151008,0.628651 c 0,-0.05045 -0.03492,-0.07761 -0.104775,-0.07761 h -0.368653 v 0.322086 c -0.174625,-0.259997 -0.380295,-0.376414 -0.663576,-0.376414 -0.438503,0 -0.799395,0.41522 -0.799395,0.865365 0,0.450145 0.360892,0.865365 0.799395,0.865365 0.279401,0 0.488951,-0.120298 0.663576,-0.376415 v 0.403579 c 0,0.263878 -0.20955,0.477309 -0.473428,0.477309 H 35.39684 c -0.06985,0 -0.104775,0.02716 -0.104775,0.07761 0,0.05433 0.03493,0.08149 0.104775,0.08149 h 0.442384 c 0.194028,0 0.337608,-0.06597 0.473428,-0.209551 0.116417,-0.124178 0.166864,-0.244475 0.166864,-0.403578 v -1.567744 h 0.20955 c 0.06985,0 0.104775,-0.02716 0.104775,-0.08149 z m -0.473428,0.741187 c 0,0.360892 -0.291042,0.698501 -0.651934,0.698501 -0.360892,0 -0.651934,-0.337609 -0.651934,-0.706262 0,-0.364773 0.287161,-0.706262 0.651934,-0.706262 0.368653,0 0.651934,0.337609 0.651934,0.714023 z"
       id="text7-9-7"
       aria-label="trig" />
    <path
       style="font-size:3.88056px;font-family:'TeX Gyre Cursor';-inkscape-font-specification:'TeX Gyre Cursor';letter-spacing:0px;fill:#ffffff;stroke-width:0.165;stroke-linejoin:round;paint-order:stroke fill markers"
       d="m 28.625284,65.544289 c 0,-0.461786 -0.364773,-0.861484 -0.845962,-0.861484 -0.294923,0 -0.488951,0.104775 -0.694621,0.372534 v -0.318206 h -0.368653 c -0.06985,0 -0.104775,0.02716 -0.104775,0.07761 0,0.05433 0.03492,0.08149 0.104775,0.08149 h 0.20955 v 2.021772 h -0.20955 c -0.06985,0 -0.104775,0.02716 -0.104775,0.07761 0,0.05433 0.03492,0.08149 0.104775,0.08149 h 0.748948 c 0.06985,0 0.104775,-0.02716 0.104775,-0.08149 0,-0.05045 -0.03493,-0.07761 -0.104775,-0.07761 h -0.380295 v -0.877007 c 0.178506,0.256117 0.395818,0.372534 0.694621,0.372534 0.477309,0 0.845962,-0.407459 0.845962,-0.869246 z m -0.159103,0.0078 c 0,0.360892 -0.310445,0.702381 -0.69074,0.702381 -0.384175,0 -0.69074,-0.341489 -0.69074,-0.710143 0,-0.364772 0.306565,-0.702381 0.69074,-0.702381 0.391937,0 0.69074,0.333728 0.69074,0.710143 z m 2.359374,0.721784 c 0,-0.05045 -0.03492,-0.07761 -0.108655,-0.07761 h -0.62089 v -1.45909 h -0.617009 c -0.06985,0 -0.104775,0.02716 -0.104775,0.07761 0,0.05433 0.03492,0.08149 0.104775,0.08149 h 0.457906 v 1.299987 h -0.62089 c -0.06985,0 -0.104775,0.02716 -0.104775,0.07761 0,0.05433 0.03493,0.08149 0.104775,0.08149 H 30.7169 c 0.06985,0 0.108655,-0.02716 0.108655,-0.08149 z m -0.613128,-2.087742 c 0,-0.108655 -0.08537,-0.197908 -0.194028,-0.197908 -0.104775,0 -0.194028,0.08925 -0.194028,0.194028 0,0.104775 0.08925,0.194028 0.194028,0.194028 0.104775,0 0.194028,-0.08925 0.194028,-0.190148 z m 2.906533,1.971325 c 0,-0.03881 -0.03493,-0.07761 -0.07373,-0.07761 -0.0194,0 -0.03104,0.0039 -0.06209,0.02328 -0.151342,0.08925 -0.426862,0.155222 -0.644173,0.155222 -0.267759,0 -0.434623,-0.128058 -0.434623,-0.325967 v -1.036145 h 0.853723 c 0.06985,0 0.104775,-0.02716 0.104775,-0.08149 0,-0.05045 -0.03493,-0.07761 -0.104775,-0.07761 h -0.853722 v -0.46179 c 0,-0.07373 -0.02328,-0.104775 -0.07761,-0.104775 -0.05433,0 -0.08149,0.03493 -0.08149,0.104775 v 0.461787 h -0.287161 c -0.07373,0 -0.108656,0.02716 -0.108656,0.07761 0,0.05433 0.03492,0.08149 0.108656,0.08149 h 0.287161 v 1.04387 c 0,0.291042 0.236714,0.477309 0.601487,0.477309 0.329847,0 0.772231,-0.147461 0.772231,-0.259997 z m 2.46803,-0.143581 c 0,-0.0388 -0.03493,-0.07373 -0.07373,-0.07373 -0.02716,0 -0.03881,0.0078 -0.06985,0.03881 -0.201789,0.186267 -0.442384,0.2794 -0.725665,0.2794 -0.422981,0 -0.721784,-0.291042 -0.721784,-0.6985 0,-0.426862 0.294922,-0.717904 0.721784,-0.717904 0.325967,0 0.601487,0.162984 0.617009,0.368653 0.0078,0.06597 0.03105,0.09313 0.08149,0.09313 0.05045,0 0.07761,-0.03493 0.07761,-0.104775 v -0.353131 c 0,-0.07373 -0.02716,-0.108656 -0.07761,-0.108656 -0.05433,0 -0.08149,0.03493 -0.08149,0.108656 v 0.05045 c -0.159103,-0.1397 -0.368653,-0.213431 -0.605367,-0.213431 -0.519995,0 -0.892529,0.368653 -0.892529,0.880887 0,0.496712 0.364773,0.853723 0.873126,0.853723 0.256117,0 0.512234,-0.07761 0.710142,-0.21343 0.108656,-0.07373 0.166864,-0.143581 0.166864,-0.190148 z m 2.390419,0.259998 c 0,-0.05045 -0.03493,-0.07761 -0.108655,-0.07761 h -0.174625 v -0.97014 c 0,-0.314325 -0.256117,-0.543278 -0.617009,-0.543278 -0.236715,0 -0.399698,0.08925 -0.597607,0.325967 V 64.011508 H 36.11086 c -0.06985,0 -0.104775,0.02716 -0.104775,0.07761 0,0.05433 0.03493,0.08149 0.104775,0.08149 h 0.20955 v 2.025652 h -0.178505 c -0.06985,0 -0.104775,0.02716 -0.104775,0.07761 0,0.05433 0.03881,0.08149 0.104775,0.08149 h 0.512234 c 0.06985,0 0.108655,-0.02716 0.108655,-0.08149 0,-0.05045 -0.03493,-0.07761 -0.108655,-0.07761 h -0.174626 v -0.989542 l 0.04269,-0.05045 c 0.20955,-0.248355 0.318205,-0.314325 0.535517,-0.314325 0.252236,0 0.477309,0.1397 0.477309,0.395817 v 0.958498 h -0.174626 c -0.06985,0 -0.104775,0.02716 -0.104775,0.07761 0,0.05433 0.03492,0.08149 0.104775,0.08149 h 0.508354 c 0.07373,0 0.108655,-0.02716 0.108655,-0.08149 z"
       id="text7-9-7-3"
       aria-label="pitch" />
    <rect
       style="fill:#00391f;fill-opacity:0.0527585;stroke:#00391f;stroke-width:0.421925;stroke-linejoin:round;stroke-dasharray:none;stroke-opacity:1"
       id="rect9-5-7-6"
       width="34.927662"
       height="74.061241"
       x="61.811043"
       y="43.615047"
       ry="2.8715112" />
    <path
       id="rect9-5-7-6-4"
       style="fill:#00391f;stroke:#00391f;stroke-width:0.423611;stroke-linejoin:round"
       d="m 61.811043,67.183716 34.935754,0.02845 -0.0014,2.923841 -0.0081,44.676186 c -2.91e-4,1.60712 -1.293824,2.90095 -2.900952,2.90095 H 64.712838 c -1.607127,0 -2.89286,-1.29382 -2.89286,-2.90095 V 70.135999 c 0,0.01133 -0.0089,-2.952283 -0.0089,-2.952283 z"
       sodipodi:nodetypes="cccsssscc" />
    <path
       style="font-size:3.175px;font-family:'TeX Gyre Cursor';-inkscape-font-specification:'TeX Gyre Cursor';text-align:center;letter-spacing:0px;text-anchor:middle;stroke-width:0.21187;stroke-linejoin:round;paint-order:stroke fill markers"
       d="m 70.725678,47.673575 c 0,-0.05299 -0.0367,-0.08154 -0.110082,-0.08154 H 70.395444 V 45.296754 H 70.00814 c -0.07338,0 -0.110082,0.02855 -0.110082,0.08154 0,0.05708 0.0367,0.08561 0.110082,0.08561 h 0.220152 v 0.962143 c -0.199768,-0.289457 -0.436227,-0.423994 -0.741993,-0.423994 -0.485149,0 -0.880607,0.407686 -0.880607,0.909143 0,0.501456 0.395458,0.913222 0.880607,0.913222 0.305766,0 0.550379,-0.142692 0.741993,-0.428072 v 0.362842 h 0.387304 c 0.07338,0 0.110082,-0.02854 0.110082,-0.08562 z m -0.49738,-0.754224 c 0,0.407689 -0.326151,0.737916 -0.725685,0.737916 -0.407689,0 -0.729762,-0.330227 -0.729762,-0.746069 0,-0.411766 0.322073,-0.741992 0.725685,-0.741992 0.411765,0 0.729762,0.326149 0.729762,0.750145 z m 2.637737,0.754224 c 0,-0.05299 -0.0367,-0.08154 -0.114152,-0.08154 H 72.099581 V 46.05913 h -0.648224 c -0.07338,0 -0.110083,0.02854 -0.110083,0.08154 0,0.05708 0.0367,0.08561 0.110083,0.08561 h 0.481072 v 1.365755 h -0.652301 c -0.07338,0 -0.110083,0.02853 -0.110083,0.08154 0,0.05708 0.0367,0.08562 0.110083,0.08562 h 1.471755 c 0.07338,0 0.114152,-0.02855 0.114152,-0.08562 z m -0.644147,-2.193362 c 0,-0.114153 -0.08969,-0.20792 -0.203844,-0.20792 -0.110083,0 -0.203845,0.09377 -0.203845,0.203843 0,0.110069 0.09377,0.203844 0.203845,0.203844 0.110082,0 0.203844,-0.09378 0.203844,-0.199767 z m 3.343036,0.660455 c 0,-0.05299 -0.03669,-0.08154 -0.110069,-0.08154 h -0.619686 c -0.07338,0 -0.110083,0.02855 -0.110083,0.08154 0,0.05708 0.0367,0.08561 0.110083,0.08561 h 0.277228 l -0.599301,1.365755 h -0.07747 l -0.611532,-1.365755 h 0.264997 c 0.07745,0 0.114153,-0.02853 0.114153,-0.08561 0,-0.05299 -0.0367,-0.08154 -0.114153,-0.08154 h -0.615609 c -0.07338,0 -0.110083,0.02855 -0.110083,0.08154 0,0.05708 0.0367,0.08561 0.110083,0.08561 h 0.167152 l 0.684916,1.532907 h 0.285381 l 0.676762,-1.532907 h 0.167153 c 0.07338,0 0.110069,-0.02853 0.110069,-0.08561 z m 2.193357,1.532907 c 0,-0.05299 -0.0367,-0.08154 -0.114152,-0.08154 H 76.991827 V 46.05913 h -0.648224 c -0.07338,0 -0.110082,0.02854 -0.110082,0.08154 0,0.05708 0.0367,0.08561 0.110082,0.08561 h 0.481072 v 1.365755 h -0.652301 c -0.07338,0 -0.110083,0.02853 -0.110083,0.08154 0,0.05708 0.0367,0.08562 0.110083,0.08562 h 1.471755 c 0.07338,0 0.114152,-0.02855 0.114152,-0.08562 z m -0.644147,-2.193362 c 0,-0.114153 -0.08969,-0.20792 -0.203844,-0.20792 -0.110083,0 -0.203845,0.09377 -0.203845,0.203843 0,0.110069 0.09377,0.203844 0.203845,0.203844 0.110082,0 0.203844,-0.09378 0.203844,-0.199767 z m 3.045425,1.806058 c 0,-0.289459 -0.24869,-0.448457 -0.733839,-0.525918 -0.350612,-0.05708 -0.603378,-0.04077 -0.603378,-0.285382 0,-0.175306 0.228305,-0.305765 0.529994,-0.305765 0.309844,0 0.521842,0.118236 0.542226,0.301688 0.0081,0.06523 0.03669,0.09378 0.08561,0.09378 0.05301,0 0.08154,-0.0367 0.08154,-0.110082 v -0.281304 c 0,-0.07745 -0.02853,-0.114153 -0.08154,-0.114153 -0.05299,0 -0.08561,0.04485 -0.08561,0.114153 v 0.01631 c -0.142691,-0.126377 -0.326151,-0.187538 -0.558533,-0.187538 -0.399535,0 -0.697147,0.19569 -0.697147,0.460685 0,0.240537 0.138614,0.387305 0.717531,0.452534 0.440304,0.04892 0.619687,0.179383 0.619687,0.366919 0,0.216075 -0.269075,0.375074 -0.62784,0.375074 -0.346536,0 -0.627841,-0.150845 -0.627841,-0.338382 v -0.02854 c 0,-0.05299 -0.03262,-0.08969 -0.08154,-0.08969 -0.05708,0 -0.08562,0.03669 -0.08562,0.11007 v 0.338381 c 0,0.07338 0.02853,0.110082 0.08562,0.110082 0.05299,0 0.08154,-0.0367 0.08154,-0.110082 v -0.04485 c 0.17123,0.150845 0.375074,0.220152 0.640071,0.220152 0.460688,0 0.799069,-0.228306 0.799069,-0.538149 z m 2.490971,0.387304 c 0,-0.05299 -0.0367,-0.08154 -0.114153,-0.08154 H 81.884076 V 46.05913 h -0.648224 c -0.07338,0 -0.11007,0.02854 -0.11007,0.08154 0,0.05708 0.03669,0.08561 0.11007,0.08561 h 0.481072 v 1.365755 h -0.652302 c -0.07338,0 -0.110069,0.02853 -0.110069,0.08154 0,0.05708 0.03668,0.08562 0.110069,0.08562 h 1.471755 c 0.07338,0 0.114153,-0.02855 0.114153,-0.08562 z m -0.644148,-2.193362 c 0,-0.114153 -0.08969,-0.20792 -0.203844,-0.20792 -0.110069,0 -0.203844,0.09377 -0.203844,0.203843 0,0.110069 0.09378,0.203844 0.203844,0.203844 0.110083,0 0.203844,-0.09378 0.203844,-0.199767 z m 3.171809,1.443217 c 0,-0.517765 -0.407688,-0.921375 -0.929529,-0.921375 -0.517764,0 -0.929529,0.407687 -0.929529,0.909144 0,0.50961 0.411765,0.913222 0.929529,0.913222 0.513687,0 0.929529,-0.403612 0.929529,-0.900991 z m -0.167152,0 c 0,0.40361 -0.342458,0.733839 -0.762377,0.733839 -0.423996,0 -0.762377,-0.330228 -0.762377,-0.74607 0,-0.411765 0.338381,-0.741992 0.762377,-0.741992 0.428073,0 0.762377,0.32615 0.762377,0.754223 z m 2.666276,0.750146 c 0,-0.05299 -0.0367,-0.08154 -0.110083,-0.08154 h -0.138614 v -1.035525 c 0,-0.313918 -0.277228,-0.554455 -0.64007,-0.554455 -0.252767,0 -0.399535,0.07746 -0.635994,0.338379 v -0.281302 h -0.30576 c -0.07338,0 -0.110082,0.02854 -0.110082,0.08154 0,0.05708 0.0367,0.08561 0.110082,0.08561 h 0.138614 v 1.365754 h -0.18346 c -0.07745,0 -0.114153,0.02853 -0.114153,0.08154 0,0.05708 0.0367,0.08562 0.114153,0.08562 h 0.534072 c 0.07338,0 0.110069,-0.02854 0.110069,-0.08562 0,-0.05299 -0.03669,-0.08154 -0.110069,-0.08154 h -0.18346 v -1.031451 c 0.18346,-0.244613 0.30169,-0.39138 0.619686,-0.39138 0.252767,0 0.489227,0.154921 0.489227,0.415841 v 1.00699 h -0.138615 c -0.07338,0 -0.110082,0.02853 -0.110082,0.08154 0,0.05708 0.0367,0.08562 0.110082,0.08562 h 0.444381 c 0.07338,0 0.110082,-0.02854 0.110082,-0.08562 z m 2.26674,-0.387304 c 0,-0.289459 -0.248689,-0.448457 -0.733839,-0.525918 -0.350612,-0.05708 -0.603378,-0.04077 -0.603378,-0.285382 0,-0.175306 0.228305,-0.305765 0.529995,-0.305765 0.309843,0 0.521841,0.118236 0.542225,0.301688 0.0081,0.06523 0.03669,0.09378 0.08561,0.09378 0.05299,0 0.08154,-0.0367 0.08154,-0.110082 v -0.281304 c 0,-0.07745 -0.02853,-0.114152 -0.08154,-0.114152 -0.05299,0 -0.08561,0.04485 -0.08561,0.114152 v 0.01631 c -0.142691,-0.126377 -0.326151,-0.187537 -0.558533,-0.187537 -0.399535,0 -0.697147,0.195691 -0.697147,0.460685 0,0.240538 0.138614,0.387306 0.717531,0.452534 0.440304,0.04892 0.619687,0.179383 0.619687,0.36692 0,0.216075 -0.269075,0.375073 -0.62784,0.375073 -0.346535,0 -0.62784,-0.150844 -0.62784,-0.338382 v -0.02854 c 0,-0.05299 -0.03261,-0.08969 -0.08154,-0.08969 -0.05708,0 -0.08561,0.03668 -0.08561,0.110069 v 0.338383 c 0,0.07338 0.02853,0.110082 0.08561,0.110082 0.05299,0 0.08154,-0.0367 0.08154,-0.110082 v -0.04485 c 0.171229,0.150845 0.375073,0.220152 0.64007,0.220152 0.460688,0 0.799069,-0.228306 0.799069,-0.538149 z"
       id="text7-9-4-0"
       aria-label="divisions"
       inkscape:label="text7-9-4" />
    <path
       style="font-size:3.88056px;font-family:'TeX Gyre Cursor';-inkscape-font-specification:'TeX Gyre Cursor';letter-spacing:0px;fill:#ffffff;stroke-width:0.165;stroke-linejoin:round;paint-order:stroke fill markers"
       d="m 68.034116,71.232292 c 0,-0.0388 -0.0349,-0.0776 -0.0737,-0.0776 -0.0194,0 -0.031,0.004 -0.0621,0.0233 -0.15134,0.0893 -0.42686,0.15523 -0.64417,0.15523 -0.26776,0 -0.43463,-0.12806 -0.43463,-0.32597 v -1.036109 h 0.85373 c 0.0699,0 0.10477,-0.0272 0.10477,-0.0815 0,-0.0504 -0.0349,-0.0776 -0.10477,-0.0776 h -0.85373 v -0.461792 c 0,-0.07373 -0.0233,-0.104771 -0.0776,-0.104771 -0.0543,0 -0.0815,0.03493 -0.0815,0.104771 v 0.46179 h -0.28716 c -0.0737,0 -0.10865,0.0272 -0.10865,0.0776 0,0.0543 0.0349,0.0815 0.10865,0.0815 h 0.28716 v 1.043869 c 0,0.291039 0.23672,0.477311 0.60149,0.477311 0.32985,0 0.77223,-0.14746 0.77223,-0.260002 z m 2.49131,-1.218491 c 0,-0.0349 -0.0233,-0.066 -0.0892,-0.1203 -0.10089,-0.0854 -0.18627,-0.1203 -0.2988,-0.1203 -0.19791,0 -0.38806,0.10866 -0.74895,0.43463 v -0.39582 h -0.45015 c -0.066,0 -0.10477,0.031 -0.10477,0.0776 0,0.0504 0.0388,0.0815 0.10477,0.0815 h 0.29105 V 71.2711 h -0.37254 c -0.066,0 -0.10477,0.031 -0.10477,0.0776 0,0.0505 0.0388,0.0815 0.10477,0.0815 h 1.22626 c 0.066,0 0.10478,-0.031 0.10478,-0.0776 0,-0.0504 -0.0388,-0.0815 -0.10478,-0.0815 h -0.69462 v -0.857609 c 0.42686,-0.39193 0.56268,-0.48119 0.73731,-0.48119 0.0854,0 0.16298,0.0427 0.25611,0.13194 0.0272,0.0272 0.0349,0.0311 0.0621,0.0311 0.0466,0 0.0815,-0.0349 0.0815,-0.0815 z m 2.20027,1.33491 c 0,-0.0504 -0.0349,-0.0776 -0.10865,-0.0776 h -0.62089 v -1.45909 h -0.61701 c -0.0698,0 -0.10478,0.0272 -0.10478,0.0776 0,0.0543 0.0349,0.0815 0.10478,0.0815 h 0.4579 v 1.29999 h -0.62089 c -0.0699,0 -0.10477,0.0272 -0.10477,0.0776 0,0.0543 0.0349,0.0815 0.10477,0.0815 h 1.40089 c 0.0698,0 0.10865,-0.0272 0.10865,-0.0815 z m -0.61312,-2.087741 c 0,-0.108655 -0.0854,-0.197908 -0.19403,-0.197908 -0.10478,0 -0.19403,0.08925 -0.19403,0.194029 0,0.104771 0.0893,0.19403 0.19403,0.19403 0.10477,0 0.19403,-0.0892 0.19403,-0.190151 z m 3.151,0.628652 c 0,-0.0504 -0.0349,-0.0776 -0.10477,-0.0776 h -0.36865 v 0.322091 c -0.17463,-0.260001 -0.3803,-0.37642 -0.66358,-0.37642 -0.4385,0 -0.7994,0.41522 -0.7994,0.86537 0,0.45014 0.3609,0.865359 0.7994,0.865359 0.2794,0 0.48895,-0.1203 0.66358,-0.37641 v 0.40358 c 0,0.26387 -0.20955,0.4773 -0.47343,0.4773 h -0.45015 c -0.0699,0 -0.10477,0.0272 -0.10477,0.0776 0,0.0543 0.0349,0.0815 0.10477,0.0815 h 0.44239 c 0.19402,0 0.3376,-0.066 0.47342,-0.20955 0.11642,-0.12417 0.16687,-0.24447 0.16687,-0.40357 v -1.56775 h 0.20955 c 0.0699,0 0.10477,-0.0272 0.10477,-0.0815 z m -0.47342,0.74119 c 0,0.36089 -0.29105,0.6985 -0.65194,0.6985 -0.36089,0 -0.65193,-0.33761 -0.65193,-0.70626 0,-0.36478 0.28716,-0.706271 0.65193,-0.706271 0.36865,0 0.65194,0.33761 0.65194,0.714031 z"
       id="text7-9-7-6"
       aria-label="trig" />
    <path
       style="font-size:3.88056px;font-family:'TeX Gyre Cursor';-inkscape-font-specification:'TeX Gyre Cursor';letter-spacing:0px;fill:#ffffff;stroke-width:0.165;stroke-linejoin:round;paint-order:stroke fill markers"
       d="m 84.869546,70.483978 c 0,-0.461786 -0.364773,-0.861484 -0.845962,-0.861484 -0.294923,0 -0.488951,0.104775 -0.694621,0.372534 V 69.676822 H 82.96031 c -0.06985,0 -0.104775,0.02716 -0.104775,0.07761 0,0.05433 0.03492,0.08149 0.104775,0.08149 h 0.20955 v 2.021772 h -0.20955 c -0.06985,0 -0.104775,0.02716 -0.104775,0.07761 0,0.05433 0.03492,0.08149 0.104775,0.08149 h 0.748948 c 0.06985,0 0.104775,-0.02716 0.104775,-0.08149 0,-0.05045 -0.03493,-0.07761 -0.104775,-0.07761 h -0.380295 v -0.877007 c 0.178506,0.256117 0.395818,0.372534 0.694621,0.372534 0.477309,0 0.845962,-0.407459 0.845962,-0.869246 z m -0.159103,0.0078 c 0,0.360892 -0.310445,0.702381 -0.69074,0.702381 -0.384175,0 -0.69074,-0.341489 -0.69074,-0.710143 0,-0.364772 0.306565,-0.702381 0.69074,-0.702381 0.391937,0 0.69074,0.333728 0.69074,0.710143 z m 2.359374,0.721784 c 0,-0.05045 -0.03492,-0.07761 -0.108655,-0.07761 h -0.62089 v -1.45909 h -0.617009 c -0.06985,0 -0.104775,0.02716 -0.104775,0.07761 0,0.05433 0.03492,0.08149 0.104775,0.08149 h 0.457906 v 1.299987 h -0.62089 c -0.06985,0 -0.104775,0.02716 -0.104775,0.07761 0,0.05433 0.03493,0.08149 0.104775,0.08149 h 1.400883 c 0.06985,0 0.108655,-0.02716 0.108655,-0.08149 z M 86.456689,69.12582 c 0,-0.108655 -0.08537,-0.197908 -0.194028,-0.197908 -0.104775,0 -0.194028,0.08925 -0.194028,0.194028 0,0.104775 0.08925,0.194028 0.194028,0.194028 0.104775,0 0.194028,-0.08925 0.194028,-0.190148 z m 2.906533,1.971325 c 0,-0.03881 -0.03493,-0.07761 -0.07373,-0.07761 -0.0194,0 -0.03104,0.0039 -0.06209,0.02328 -0.151342,0.08925 -0.426862,0.155222 -0.644173,0.155222 -0.267759,0 -0.434623,-0.128058 -0.434623,-0.325967 v -1.036145 h 0.853723 c 0.06985,0 0.104775,-0.02716 0.104775,-0.08149 0,-0.05045 -0.03493,-0.07761 -0.104775,-0.07761 h -0.853722 v -0.46179 c 0,-0.07373 -0.02328,-0.104775 -0.07761,-0.104775 -0.05433,0 -0.08149,0.03493 -0.08149,0.104775 v 0.461787 h -0.287161 c -0.07373,0 -0.108656,0.02716 -0.108656,0.07761 0,0.05433 0.03492,0.08149 0.108656,0.08149 h 0.287161 v 1.04387 c 0,0.291042 0.236714,0.477309 0.601487,0.477309 0.329847,0 0.772231,-0.147461 0.772231,-0.259997 z m 2.46803,-0.143581 c 0,-0.0388 -0.03493,-0.07373 -0.07373,-0.07373 -0.02716,0 -0.03881,0.0078 -0.06985,0.03881 -0.201789,0.186267 -0.442384,0.2794 -0.725665,0.2794 -0.422981,0 -0.721784,-0.291042 -0.721784,-0.6985 0,-0.426862 0.294922,-0.717904 0.721784,-0.717904 0.325967,0 0.601487,0.162984 0.617009,0.368653 0.0078,0.06597 0.03105,0.09313 0.08149,0.09313 0.05045,0 0.07761,-0.03493 0.07761,-0.104775 v -0.353131 c 0,-0.07373 -0.02716,-0.108656 -0.07761,-0.108656 -0.05433,0 -0.08149,0.03493 -0.08149,0.108656 v 0.05045 c -0.159103,-0.1397 -0.368653,-0.213431 -0.605367,-0.213431 -0.519995,0 -0.892529,0.368653 -0.892529,0.880887 0,0.496712 0.364773,0.853723 0.873126,0.853723 0.256117,0 0.512234,-0.07761 0.710142,-0.21343 0.108656,-0.07373 0.166864,-0.143581 0.166864,-0.190148 z m 2.390419,0.259998 c 0,-0.05045 -0.03493,-0.07761 -0.108655,-0.07761 h -0.174625 v -0.97014 c 0,-0.314325 -0.256117,-0.543278 -0.617009,-0.543278 -0.236715,0 -0.399698,0.08925 -0.597607,0.325967 v -0.997304 h -0.368653 c -0.06985,0 -0.104775,0.02716 -0.104775,0.07761 0,0.05433 0.03493,0.08149 0.104775,0.08149 h 0.20955 v 2.025652 h -0.178505 c -0.06985,0 -0.104775,0.02716 -0.104775,0.07761 0,0.05433 0.03881,0.08149 0.104775,0.08149 h 0.512234 c 0.06985,0 0.108655,-0.02716 0.108655,-0.08149 0,-0.05045 -0.03493,-0.07761 -0.108655,-0.07761 h -0.174626 v -0.989542 l 0.04269,-0.05045 c 0.20955,-0.248355 0.318205,-0.314325 0.535517,-0.314325 0.252236,0 0.477309,0.1397 0.477309,0.395817 v 0.958498 h -0.174626 c -0.06985,0 -0.104775,0.02716 -0.104775,0.07761 0,0.05433 0.03492,0.08149 0.104775,0.08149 h 0.508354 c 0.07373,0 0.108655,-0.02716 0.108655,-0.08149 z"
       id="text7-9-7-3-3"
       aria-label="pitch" />
    <rect
       style="display:inline;fill:#00391f;fill-opacity:0.0527585;stroke:#00391f;stroke-width:0.423796;stroke-linejoin:round;stroke-dasharray:none;stroke-opacity:1"
       id="rect9-5-7-9"
       width="34.924999"
       height="34.896545"
       x="4.902144"
       y="82.693069"
       ry="2.6962011" />
    <path
       id="rect9-5-7-53-2"
       style="display:inline;fill:#00391f;fill-opacity:1;stroke:none;stroke-width:0.274013;stroke-linejoin:round"
       d="m 25.350488,82.562713 12.284282,0.14783 c 0.56868,0.0069 2.251076,1.168632 2.251076,2.668834 v 29.632643 c 0,1.50021 -1.900303,2.56873 -2.468975,2.575 l -12.051342,0.13295 c -0.0031,0 0,0 0,0 z"
       sodipodi:nodetypes="cssssccc" />
    <path
       style="display:inline;font-size:3.175px;font-family:'TeX Gyre Cursor';-inkscape-font-specification:'TeX Gyre Cursor';text-align:center;letter-spacing:0px;text-anchor:middle;stroke-width:0.165;stroke-linejoin:round;paint-order:stroke fill markers"
       d="m 8.4486716,98.089646 c 0,-0.04127 -0.02858,-0.0635 -0.08573,-0.0635 h -0.17145 v -1.787524 h -0.301625 c -0.05715,0 -0.08573,0.02223 -0.08573,0.0635 0,0.04445 0.02858,0.06667 0.08573,0.06667 h 0.17145 v 0.749299 c -0.155575,-0.225424 -0.339725,-0.330199 -0.57785,-0.330199 -0.377825,0 -0.6858,0.317499 -0.6858,0.708024 0,0.390525 0.307975,0.7112 0.6858,0.7112 0.238125,0 0.428625,-0.111125 0.57785,-0.333375 v 0.282575 h 0.301625 c 0.05715,0 0.08573,-0.02223 0.08573,-0.06668 z m -0.38735,-0.587375 c 0,0.3175 -0.254,0.574675 -0.56515,0.574675 -0.3175,0 -0.568325,-0.257175 -0.568325,-0.581025 0,-0.320675 0.250825,-0.577849 0.56515,-0.577849 0.320675,0 0.568325,0.253999 0.568325,0.584199 z m 2.0542194,0.587375 c 0,-0.04127 -0.02858,-0.0635 -0.0889,-0.0635 H 9.5186415 v -1.193799 h -0.504825 c -0.05715,0 -0.08573,0.02223 -0.08573,0.0635 0,0.04445 0.02858,0.06667 0.08573,0.06667 h 0.37465 v 1.063624 h -0.508 c -0.05715,0 -0.08573,0.02222 -0.08573,0.0635 0,0.04445 0.02858,0.06668 0.08573,0.06668 h 1.1461745 c 0.05715,0 0.0889,-0.02223 0.0889,-0.06668 z M 9.6138916,96.381497 c 0,-0.0889 -0.06985,-0.161925 -0.15875,-0.161925 -0.08573,0 -0.15875,0.07303 -0.15875,0.15875 0,0.08572 0.07303,0.15875 0.15875,0.15875 0.08573,0 0.15875,-0.07303 0.15875,-0.155575 z m 2.6034934,0.51435 c 0,-0.04127 -0.02857,-0.0635 -0.08572,-0.0635 h -0.4826 c -0.05715,0 -0.08573,0.02223 -0.08573,0.0635 0,0.04445 0.02858,0.06667 0.08573,0.06667 h 0.2159 l -0.466724,1.063624 h -0.06033 l -0.47625,-1.063624 h 0.206375 c 0.06032,0 0.0889,-0.02222 0.0889,-0.06667 0,-0.04127 -0.02858,-0.0635 -0.0889,-0.0635 h -0.479425 c -0.05715,0 -0.08573,0.02223 -0.08573,0.0635 0,0.04445 0.02858,0.06667 0.08573,0.06667 h 0.130175 l 0.5334,1.193799 h 0.222249 l 0.52705,-1.193799 h 0.130175 c 0.05715,0 0.08572,-0.02222 0.08572,-0.06667 z m 1.708146,1.193799 c 0,-0.04127 -0.02858,-0.0635 -0.0889,-0.0635 h -0.508 v -1.193799 h -0.504826 c -0.05715,0 -0.08573,0.02223 -0.08573,0.0635 0,0.04445 0.02858,0.06667 0.08573,0.06667 h 0.374651 v 1.063624 h -0.508001 c -0.05715,0 -0.08573,0.02222 -0.08573,0.0635 0,0.04445 0.02858,0.06668 0.08573,0.06668 h 1.146176 c 0.05715,0 0.0889,-0.02223 0.0889,-0.06668 z m -0.50165,-1.708149 c 0,-0.0889 -0.06985,-0.161925 -0.15875,-0.161925 -0.08573,0 -0.15875,0.07303 -0.15875,0.15875 0,0.08572 0.07303,0.15875 0.15875,0.15875 0.08573,0 0.15875,-0.07303 0.15875,-0.155575 z m 2.37172,1.406524 c 0,-0.225425 -0.193675,-0.34925 -0.5715,-0.409575 -0.27305,-0.04445 -0.4699,-0.03175 -0.4699,-0.22225 0,-0.136525 0.1778,-0.238124 0.41275,-0.238124 0.2413,0 0.4064,0.09208 0.422275,0.234949 0.0063,0.0508 0.02857,0.07303 0.06667,0.07303 0.04128,0 0.0635,-0.02858 0.0635,-0.08573 v -0.219074 c 0,-0.06032 -0.02222,-0.0889 -0.0635,-0.0889 -0.04127,0 -0.06667,0.03493 -0.06667,0.0889 v 0.0127 c -0.111125,-0.09842 -0.254,-0.14605 -0.434975,-0.14605 -0.31115,0 -0.542925,0.1524 -0.542925,0.358774 0,0.187325 0.10795,0.301625 0.5588,0.352425 0.3429,0.0381 0.4826,0.1397 0.4826,0.28575 0,0.168275 -0.20955,0.2921 -0.48895,0.2921 -0.269875,0 -0.48895,-0.117475 -0.48895,-0.263525 v -0.02223 c 0,-0.04127 -0.0254,-0.06985 -0.0635,-0.06985 -0.04445,0 -0.06668,0.02857 -0.06668,0.08572 v 0.263525 c 0,0.05715 0.02222,0.08573 0.06668,0.08573 0.04127,0 0.0635,-0.02858 0.0635,-0.08573 v -0.03493 c 0.13335,0.117475 0.2921,0.17145 0.498475,0.17145 0.358775,0 0.6223,-0.1778 0.6223,-0.4191 z m 1.939921,0.301625 c 0,-0.04127 -0.02858,-0.0635 -0.0889,-0.0635 h -0.508 v -1.193799 h -0.504825 c -0.05715,0 -0.08572,0.02223 -0.08572,0.0635 0,0.04445 0.02857,0.06667 0.08572,0.06667 h 0.37465 v 1.063624 h -0.508 c -0.05715,0 -0.08572,0.02222 -0.08572,0.0635 0,0.04445 0.02857,0.06668 0.08572,0.06668 h 1.146175 c 0.05715,0 0.0889,-0.02223 0.0889,-0.06668 z m -0.50165,-1.708149 c 0,-0.0889 -0.06985,-0.161925 -0.15875,-0.161925 -0.08572,0 -0.15875,0.07303 -0.15875,0.15875 0,0.08572 0.07303,0.15875 0.15875,0.15875 0.08573,0 0.15875,-0.07303 0.15875,-0.155575 z m 2.470145,1.123949 c 0,-0.403225 -0.3175,-0.717549 -0.7239,-0.717549 -0.403225,0 -0.7239,0.317499 -0.7239,0.708024 0,0.396875 0.320675,0.7112 0.7239,0.7112 0.40005,0 0.7239,-0.314325 0.7239,-0.701675 z m -0.130175,0 c 0,0.314325 -0.2667,0.5715 -0.593725,0.5715 -0.3302,0 -0.593725,-0.257175 -0.593725,-0.581025 0,-0.320675 0.263525,-0.577849 0.593725,-0.577849 0.333375,0 0.593725,0.253999 0.593725,0.587374 z m 2.076445,0.5842 c 0,-0.04127 -0.02858,-0.0635 -0.08573,-0.0635 h -0.10795 v -0.80645 c 0,-0.244474 -0.2159,-0.431799 -0.498475,-0.431799 -0.19685,0 -0.31115,0.06032 -0.4953,0.263524 v -0.219074 h -0.23812 c -0.05715,0 -0.08573,0.02223 -0.08573,0.0635 0,0.04445 0.02858,0.06667 0.08573,0.06667 h 0.10795 v 1.063624 h -0.142875 c -0.06032,0 -0.0889,0.02222 -0.0889,0.0635 0,0.04445 0.02858,0.06668 0.0889,0.06668 h 0.415925 c 0.05715,0 0.08572,-0.02223 0.08572,-0.06668 0,-0.04127 -0.02857,-0.0635 -0.08572,-0.0635 h -0.142875 v -0.803275 c 0.142875,-0.1905 0.23495,-0.304799 0.4826,-0.304799 0.19685,0 0.381,0.120649 0.381,0.323849 v 0.784225 h -0.10795 c -0.05715,0 -0.08573,0.02222 -0.08573,0.0635 0,0.04445 0.02858,0.06668 0.08573,0.06668 h 0.346075 c 0.05715,0 0.08573,-0.02223 0.08573,-0.06668 z m 1.765295,-0.301625 c 0,-0.225425 -0.193675,-0.34925 -0.5715,-0.409575 -0.27305,-0.04445 -0.4699,-0.03175 -0.4699,-0.22225 0,-0.136525 0.1778,-0.238124 0.41275,-0.238124 0.2413,0 0.4064,0.09208 0.422275,0.234949 0.0063,0.0508 0.02857,0.07303 0.06667,0.07303 0.04127,0 0.0635,-0.02858 0.0635,-0.08573 v -0.219074 c 0,-0.06032 -0.02222,-0.0889 -0.0635,-0.0889 -0.04127,0 -0.06667,0.03493 -0.06667,0.0889 v 0.0127 c -0.111125,-0.09842 -0.254,-0.14605 -0.434975,-0.14605 -0.31115,0 -0.542925,0.1524 -0.542925,0.358774 0,0.187325 0.10795,0.301625 0.5588,0.352425 0.3429,0.0381 0.4826,0.1397 0.4826,0.28575 0,0.168275 -0.20955,0.2921 -0.48895,0.2921 -0.269875,0 -0.48895,-0.117475 -0.48895,-0.263525 v -0.02223 c 0,-0.04127 -0.0254,-0.06985 -0.0635,-0.06985 -0.04445,0 -0.06667,0.02857 -0.06667,0.08572 v 0.263525 c 0,0.05715 0.02222,0.08573 0.06667,0.08573 0.04127,0 0.0635,-0.02858 0.0635,-0.08573 v -0.03493 c 0.13335,0.117475 0.2921,0.17145 0.498475,0.17145 0.358775,0 0.6223,-0.1778 0.6223,-0.4191 z"
       id="text7-9-4-2"
       aria-label="divisions"
       inkscape:label="text7-9-4" />
    <path
       style="display:inline;font-size:3.88056px;font-family:'TeX Gyre Cursor';-inkscape-font-specification:'TeX Gyre Cursor';letter-spacing:0px;fill:#ffffff;stroke-width:0.165;stroke-linejoin:round;paint-order:stroke fill markers"
       d="m 29.603717,86.250214 c 0,-0.03881 -0.03492,-0.07761 -0.07373,-0.07761 -0.0194,0 -0.03104,0.0039 -0.06209,0.02328 -0.151342,0.08925 -0.426861,0.155222 -0.644173,0.155222 -0.267758,0 -0.434622,-0.128058 -0.434622,-0.325967 v -1.036107 h 0.853723 c 0.06985,0 0.104775,-0.02716 0.104775,-0.08149 0,-0.05045 -0.03492,-0.07761 -0.104775,-0.07761 h -0.853723 v -0.46179 c 0,-0.07373 -0.02328,-0.104775 -0.07761,-0.104775 -0.05433,0 -0.08149,0.03493 -0.08149,0.104775 v 0.461787 H 27.94284 c -0.07373,0 -0.108655,0.02716 -0.108655,0.07761 0,0.05433 0.03492,0.08149 0.108655,0.08149 h 0.287162 v 1.04387 c 0,0.291042 0.236714,0.477309 0.601487,0.477309 0.329847,0 0.772231,-0.147461 0.772231,-0.259997 z m 2.491313,-1.218496 c 0,-0.03493 -0.02328,-0.06597 -0.08925,-0.120297 -0.100895,-0.08537 -0.186267,-0.120298 -0.298804,-0.120298 -0.197908,0 -0.388056,0.108656 -0.748948,0.434623 v -0.395817 h -0.450145 c -0.06597,0 -0.104775,0.03104 -0.104775,0.07761 0,0.05045 0.03881,0.08149 0.104775,0.08149 h 0.291042 v 1.299987 h -0.372533 c -0.06597,0 -0.104775,0.03104 -0.104775,0.07761 0,0.05045 0.0388,0.08149 0.104775,0.08149 h 1.226257 c 0.06597,0 0.104775,-0.03104 0.104775,-0.07761 0,-0.05045 -0.03881,-0.08149 -0.104775,-0.08149 h -0.694621 v -0.857603 c 0.426862,-0.391937 0.562682,-0.48119 0.737307,-0.48119 0.08537,0 0.162983,0.04269 0.256117,0.131939 0.02716,0.02716 0.03493,0.03105 0.06209,0.03105 0.04657,0 0.08149,-0.03493 0.08149,-0.08149 z m 2.200272,1.334913 c 0,-0.05045 -0.03493,-0.07761 -0.108656,-0.07761 h -0.620889 v -1.45909 h -0.617009 c -0.06985,0 -0.104775,0.02716 -0.104775,0.07761 0,0.05433 0.03492,0.08149 0.104775,0.08149 h 0.457906 v 1.299987 h -0.62089 c -0.06985,0 -0.104775,0.02716 -0.104775,0.07761 0,0.05433 0.03492,0.08149 0.104775,0.08149 h 1.400882 c 0.06985,0 0.108656,-0.02716 0.108656,-0.08149 z m -0.613128,-2.087742 c 0,-0.108655 -0.08537,-0.197908 -0.194028,-0.197908 -0.104776,0 -0.194028,0.08925 -0.194028,0.194028 0,0.104775 0.08925,0.194028 0.194028,0.194028 0.104775,0 0.194028,-0.08925 0.194028,-0.190148 z m 3.151008,0.628651 c 0,-0.05045 -0.03492,-0.07761 -0.104775,-0.07761 h -0.368653 v 0.322086 c -0.174625,-0.259997 -0.380295,-0.376414 -0.663576,-0.376414 -0.438503,0 -0.799395,0.41522 -0.799395,0.865365 0,0.450145 0.360892,0.865365 0.799395,0.865365 0.279401,0 0.488951,-0.120298 0.663576,-0.376415 v 0.403579 c 0,0.263878 -0.20955,0.477309 -0.473428,0.477309 h -0.450145 c -0.06985,0 -0.104775,0.02716 -0.104775,0.07761 0,0.05433 0.03493,0.08149 0.104775,0.08149 h 0.442384 c 0.194028,0 0.337608,-0.06597 0.473428,-0.209551 0.116417,-0.124178 0.166864,-0.244475 0.166864,-0.403578 v -1.567744 h 0.20955 c 0.06985,0 0.104775,-0.02716 0.104775,-0.08149 z m -0.473428,0.741187 c 0,0.360892 -0.291042,0.698501 -0.651934,0.698501 -0.360892,0 -0.651934,-0.337609 -0.651934,-0.706262 0,-0.364773 0.287161,-0.706262 0.651934,-0.706262 0.368653,0 0.651934,0.337609 0.651934,0.714023 z"
       id="text7-9-7-8"
       aria-label="trig" />
    <path
       style="display:inline;font-size:3.88056px;font-family:'TeX Gyre Cursor';-inkscape-font-specification:'TeX Gyre Cursor';letter-spacing:0px;fill:#ffffff;stroke-width:0.165;stroke-linejoin:round;paint-order:stroke fill markers"
       d="m 28.664625,104.62138 c 0,-0.46179 -0.364773,-0.86149 -0.845962,-0.86149 -0.294923,0 -0.488951,0.10478 -0.694621,0.37254 v -0.31821 h -0.368653 c -0.06985,0 -0.104775,0.0272 -0.104775,0.0776 0,0.0543 0.03492,0.0815 0.104775,0.0815 h 0.20955 v 2.02177 h -0.20955 c -0.06985,0 -0.104775,0.0272 -0.104775,0.0776 0,0.0543 0.03492,0.0815 0.104775,0.0815 h 0.748948 c 0.06985,0 0.104775,-0.0272 0.104775,-0.0815 0,-0.0504 -0.03493,-0.0776 -0.104775,-0.0776 h -0.380295 v -0.87701 c 0.178506,0.25612 0.395818,0.37254 0.694621,0.37254 0.477309,0 0.845962,-0.40746 0.845962,-0.86925 z m -0.159103,0.008 c 0,0.36089 -0.310445,0.70238 -0.69074,0.70238 -0.384175,0 -0.69074,-0.34149 -0.69074,-0.71015 0,-0.36477 0.306565,-0.70238 0.69074,-0.70238 0.391937,0 0.69074,0.33373 0.69074,0.71015 z m 2.359374,0.72178 c 0,-0.0504 -0.03492,-0.0776 -0.108655,-0.0776 h -0.62089 v -1.45909 h -0.617009 c -0.06985,0 -0.104775,0.0272 -0.104775,0.0776 0,0.0543 0.03492,0.0815 0.104775,0.0815 h 0.457906 v 1.29999 h -0.62089 c -0.06985,0 -0.104775,0.0272 -0.104775,0.0776 0,0.0543 0.03493,0.0815 0.104775,0.0815 h 1.400883 c 0.06985,0 0.108655,-0.0272 0.108655,-0.0815 z m -0.613128,-2.08774 c 0,-0.10866 -0.08537,-0.19791 -0.194028,-0.19791 -0.104775,0 -0.194028,0.0893 -0.194028,0.19403 0,0.10477 0.08925,0.19403 0.194028,0.19403 0.104775,0 0.194028,-0.0893 0.194028,-0.19015 z m 2.906533,1.97132 c 0,-0.0388 -0.03493,-0.0776 -0.07373,-0.0776 -0.0194,0 -0.03104,0.004 -0.06209,0.0233 -0.151342,0.0892 -0.426862,0.15522 -0.644173,0.15522 -0.267759,0 -0.434623,-0.12805 -0.434623,-0.32596 v -1.03615 h 0.853723 c 0.06985,0 0.104775,-0.0272 0.104775,-0.0815 0,-0.0504 -0.03493,-0.0776 -0.104775,-0.0776 h -0.853722 v -0.46179 c 0,-0.0737 -0.02328,-0.10477 -0.07761,-0.10477 -0.05433,0 -0.08149,0.0349 -0.08149,0.10477 v 0.46179 h -0.287161 c -0.07373,0 -0.108656,0.0272 -0.108656,0.0776 0,0.0543 0.03492,0.0815 0.108656,0.0815 h 0.287161 v 1.04387 c 0,0.29104 0.236714,0.47731 0.601487,0.47731 0.329847,0 0.772231,-0.14746 0.772231,-0.26 z m 2.46803,-0.14358 c 0,-0.0388 -0.03493,-0.0737 -0.07373,-0.0737 -0.02716,0 -0.03881,0.008 -0.06985,0.0388 -0.201789,0.18627 -0.442384,0.2794 -0.725665,0.2794 -0.422981,0 -0.721784,-0.29104 -0.721784,-0.6985 0,-0.42686 0.294922,-0.7179 0.721784,-0.7179 0.325967,0 0.601487,0.16298 0.617009,0.36865 0.0078,0.066 0.03105,0.0931 0.08149,0.0931 0.05045,0 0.07761,-0.0349 0.07761,-0.10477 v -0.35314 c 0,-0.0737 -0.02716,-0.10865 -0.07761,-0.10865 -0.05433,0 -0.08149,0.0349 -0.08149,0.10865 v 0.0504 c -0.159103,-0.1397 -0.368653,-0.21343 -0.605367,-0.21343 -0.519995,0 -0.892529,0.36866 -0.892529,0.88089 0,0.49671 0.364773,0.85372 0.873126,0.85372 0.256117,0 0.512234,-0.0776 0.710142,-0.21343 0.108656,-0.0737 0.166864,-0.14358 0.166864,-0.19014 z m 2.390419,0.26 c 0,-0.0504 -0.03493,-0.0776 -0.108655,-0.0776 H 37.73347 v -0.97014 c 0,-0.31433 -0.256117,-0.54328 -0.617009,-0.54328 -0.236715,0 -0.399698,0.0893 -0.597607,0.32597 v -0.99731 h -0.368653 c -0.06985,0 -0.104775,0.0272 -0.104775,0.0776 0,0.0543 0.03493,0.0815 0.104775,0.0815 h 0.20955 v 2.02566 h -0.178505 c -0.06985,0 -0.104775,0.0272 -0.104775,0.0776 0,0.0543 0.03881,0.0815 0.104775,0.0815 h 0.512234 c 0.06985,0 0.108655,-0.0272 0.108655,-0.0815 0,-0.0504 -0.03493,-0.0776 -0.108655,-0.0776 h -0.174626 v -0.98955 l 0.04269,-0.0504 c 0.20955,-0.24835 0.318205,-0.31432 0.535517,-0.31432 0.252236,0 0.477309,0.1397 0.477309,0.39582 v 0.95849 h -0.174626 c -0.06985,0 -0.104775,0.0272 -0.104775,0.0776 0,0.0543 0.03492,0.0815 0.104775,0.0815 h 0.508354 c 0.07373,0 0.108655,-0.0272 0.108655,-0.0815 z"
       id="text7-9-7-3-9"
       aria-label="pitch" />
    <rect
       style="fill:#d0d0d0;fill-opacity:1;stroke:#00391f;stroke-width:0.238719;stroke-linejoin:round;stroke-dasharray:none;stroke-opacity:1;paint-order:stroke fill markers"
       id="rect3"
       width="24.81321"
       height="0.39233375"
       x="67.468376"
       y="86.12455"
       ry="0.19616687" />
  </g>
  <g
     inkscape:groupmode="layer"
     id="layer2"
     inkscape:label="components"
     style="display:none">
    <ellipse
       style="fill:#ff0000;fill-opacity:1;stroke:none;stroke-width:0.400954;stroke-linejoin:round;paint-order:stroke fill markers"
       id="path1"
       cx="13.830741"
       cy="20.422771"
       inkscape:transform-center-x="2.9345351"
       inkscape:transform-center-y="-6.1501278"
       inkscape:label="clock"
       ry="5"
       rx="9.0658493" />
    <circle
       style="display:inline;fill:#ff00ff;fill-opacity:1;stroke:none;stroke-width:0.26838;stroke-linejoin:round;stroke-opacity:1;paint-order:stroke fill markers"
       id="path4-5-7-61-3-61"
       cx="80.08493"
       cy="72.995216"
       inkscape:label="counter3-indicator"
       r="1" />
    <circle
       style="display:inline;fill:#ff00ff;fill-opacity:1;stroke:none;stroke-width:0.26838;stroke-linejoin:round;stroke-opacity:1;paint-order:stroke fill markers"
       id="path4-5-7-61-3-61-6"
       cx="68.63633"
       cy="99.964676"
       inkscape:label="counter3-indicator1"
       r="1" />
    <circle
       style="display:inline;fill:#ff00ff;fill-opacity:1;stroke:none;stroke-width:0.26838;stroke-linejoin:round;stroke-opacity:1;paint-order:stroke fill markers"
       id="path4-5-7-61-3-61-6-5"
       cx="79.605881"
       cy="99.964676"
       inkscape:label="counter3-indicator2"
       r="1" />
    <circle
       style="display:inline;fill:#ff00ff;fill-opacity:1;stroke:none;stroke-width:0.26838;stroke-linejoin:round;stroke-opacity:1;paint-order:stroke fill markers"
       id="path4-5-7-61-3-61-6-5-7"
       cx="90.575432"
       cy="99.964676"
       inkscape:label="counter3-indicator3"
       r="1" />
    <ellipse
       style="display:inline;fill:#0000ff;fill-opacity:1;stroke:none;stroke-width:0.299881;stroke-linejoin:round;paint-order:stroke fill markers"
       id="path2-6-3-6"
       cx="88.538605"
       cy="78.999062"
       inkscape:label="counter3-pitch"
       rx="8.4536705"
       ry="4" />
    <ellipse
       style="display:inline;fill:#0000ff;fill-opacity:1;stroke:none;stroke-width:0.31132;stroke-linejoin:round;paint-order:stroke fill markers"
       id="path2-5"
       cx="70.764091"
       cy="78.999077"
       inkscape:label="counter3-trigger"
       rx="9.1108875"
       ry="4" />
    <ellipse
       style="display:inline;fill:#00ff00;fill-opacity:1;stroke:none;stroke-width:0.37531;stroke-linejoin:round;paint-order:stroke fill markers"
       id="path1-5-1-5-0"
       cx="87.607635"
       cy="54.858223"
       inkscape:transform-center-x="2.8744778"
       inkscape:transform-center-y="-5.50116"
       rx="8.8803158"
       ry="4.4723935"
       inkscape:label="counter3-divisions-cv" />
    <ellipse
       style="display:inline;fill:#ff0000;fill-opacity:1;stroke:none;stroke-width:0.385703;stroke-linejoin:round;paint-order:stroke fill markers"
       id="path1-2-8-2"
       inkscape:transform-center-x="2.7234186"
       inkscape:transform-center-y="-6.1323609"
       inkscape:label="counter3-divisions"
       ry="4.9855571"
       rx="8.4136295"
       cy="54.858223"
       cx="70.31369" />
    <rect
       style="fill:#ffff00;fill-opacity:1;stroke:none;stroke-width:0.424;stroke-linejoin:round;stroke-dasharray:none;stroke-opacity:1;paint-order:stroke fill markers"
       id="rect4"
       width="18.136"
       height="74.381912"
       x="41.758396"
       y="43.50383"
       inkscape:label="state" />
    <circle
       style="fill:#ff00ff;fill-opacity:1;stroke:none;stroke-width:0.80514;stroke-linejoin:round;stroke-opacity:1;paint-order:stroke fill markers"
       id="path4-1-4"
       cx="64.855713"
       cy="38.797192"
       r="3"
       inkscape:label="freeze-indicator" />
    <ellipse
       style="fill:#ff0000;fill-opacity:1;stroke:none;stroke-width:0.402441;stroke-linejoin:round;paint-order:stroke fill markers"
       id="path1-7"
       cx="36.282051"
       cy="20.457262"
       inkscape:transform-center-x="2.9455611"
       inkscape:transform-center-y="-6.1726455"
       rx="9.0999146"
       ry="5.0183067"
       inkscape:label="insert" />
    <ellipse
       style="fill:#ff0000;fill-opacity:1;stroke:none;stroke-width:0.402271;stroke-linejoin:round;paint-order:stroke fill markers"
       id="path1-7-9"
       cx="58.680023"
       cy="20.457262"
       inkscape:transform-center-x="2.9430829"
       inkscape:transform-center-y="-6.1726455"
       rx="9.0922527"
       ry="5.0183067"
       inkscape:label="freeze" />
    <ellipse
       style="fill:#00ff00;fill-opacity:1;stroke:none;stroke-width:0.381855;stroke-linejoin:round;paint-order:stroke fill markers"
       id="path1-5"
       cx="13.825302"
       cy="33.021645"
       inkscape:transform-center-x="2.9756102"
       inkscape:transform-center-y="-5.50116"
       rx="9.192749"
       ry="4.4723935"
       inkscape:label="clock-cv" />
    <ellipse
       style="fill:#ff0000;fill-opacity:1;stroke:none;stroke-width:0.468914;stroke-linejoin:round;paint-order:stroke fill markers"
       id="path1-2"
       cx="84.347733"
       cy="20.457262"
       inkscape:transform-center-x="3.9989883"
       inkscape:transform-center-y="-6.1726455"
       rx="12.354326"
       ry="5.0183067"
       inkscape:label="length" />
    <ellipse
       style="fill:#00ff00;fill-opacity:1;stroke:none;stroke-width:0.440942;stroke-linejoin:round;paint-order:stroke fill markers"
       id="path1-5-1"
       cx="84.347733"
       cy="33.025707"
       inkscape:transform-center-x="3.9677338"
       inkscape:transform-center-y="-5.50116"
       rx="12.257782"
       ry="4.4723935"
       inkscape:label="length-cv" />
    <ellipse
       style="fill:#ff0000;fill-opacity:1;stroke:none;stroke-width:0.424272;stroke-linejoin:round;paint-order:stroke fill markers"
       id="path1-2-8"
       inkscape:transform-center-x="3.2953099"
       inkscape:transform-center-y="-6.1323609"
       inkscape:label="counter1-divisions"
       ry="4.9855571"
       rx="10.180413"
       cy="49.773666"
       cx="15.130733" />
    <ellipse
       style="fill:#00ff00;fill-opacity:1;stroke:none;stroke-width:0.403095;stroke-linejoin:round;paint-order:stroke fill markers"
       id="path1-5-1-5"
       cx="15.067284"
       cy="66.010498"
       inkscape:transform-center-x="3.3158465"
       inkscape:transform-center-y="-5.50116"
       rx="10.243863"
       ry="4.4723935"
       inkscape:label="counter1-divisions-cv" />
    <circle
       style="fill:#ff00ff;fill-opacity:1;stroke:none;stroke-width:0.80514;stroke-linejoin:round;stroke-opacity:1;paint-order:stroke fill markers"
       id="path4"
       cx="20.032835"
       cy="38.777969"
       r="3"
       inkscape:label="clock-indicator" />
    <circle
       style="fill:#ff00ff;fill-opacity:1;stroke:none;stroke-width:0.26838;stroke-linejoin:round;stroke-opacity:1;paint-order:stroke fill markers"
       id="path4-5-7-61-3"
       cx="32.578827"
       cy="60.887592"
       r="1"
       inkscape:label="counter1-indicator" />
    <circle
       style="fill:#ff00ff;fill-opacity:1;stroke:none;stroke-width:0.80514;stroke-linejoin:round;stroke-opacity:1;paint-order:stroke fill markers"
       id="path4-1"
       cx="42.450081"
       cy="38.797192"
       r="3"
       inkscape:label="insert-indicator" />
    <ellipse
       style="fill:#00ff00;fill-opacity:1;stroke:none;stroke-width:0.381855;stroke-linejoin:round;paint-order:stroke fill markers"
       id="path1-5-6"
       cx="36.230938"
       cy="33.021645"
       inkscape:transform-center-x="2.9756102"
       inkscape:transform-center-y="-5.50116"
       rx="9.192749"
       ry="4.4723935"
       inkscape:label="insert-cv" />
    <ellipse
       style="fill:#00ff00;fill-opacity:1;stroke:none;stroke-width:0.381855;stroke-linejoin:round;paint-order:stroke fill markers"
       id="path1-5-6-5"
       cx="58.681976"
       cy="33.021645"
       inkscape:transform-center-x="2.9756102"
       inkscape:transform-center-y="-5.50116"
       rx="9.192749"
       ry="4.4723935"
       inkscape:label="freeze-cv" />
    <circle
       style="fill:#0000ff;fill-opacity:1;stroke:none;stroke-width:0.20628;stroke-linejoin:round;paint-order:stroke fill markers"
       id="path2"
       cx="32.294342"
       cy="53.786961"
       r="4"
       inkscape:label="counter1-trigger" />
    <circle
       style="fill:#0000ff;fill-opacity:1;stroke:none;stroke-width:0.20628;stroke-linejoin:round;paint-order:stroke fill markers"
       id="path2-6-3"
       cx="32.294342"
       cy="72.093651"
       r="4"
       inkscape:label="counter1-pitch" />
    <circle
       style="display:inline;fill:#0000ff;fill-opacity:1;stroke:none;stroke-width:0.20628;stroke-linejoin:round;paint-order:stroke fill markers"
       id="path2-6-3-3"
       cx="68.63633"
       cy="93.836311"
       r="4"
       inkscape:label="counter3-trig1" />
    <circle
       style="display:inline;fill:#0000ff;fill-opacity:1;stroke:none;stroke-width:0.20628;stroke-linejoin:round;paint-order:stroke fill markers"
       id="path2-6-3-3-3"
       cx="90.575432"
       cy="93.836311"
       r="4"
       inkscape:label="counter3-trig3" />
    <circle
       style="display:inline;fill:#0000ff;fill-opacity:1;stroke:none;stroke-width:0.20628;stroke-linejoin:round;paint-order:stroke fill markers"
       id="path2-6-3-3-6"
       cx="79.605881"
       cy="93.836311"
       r="4"
       inkscape:label="counter3-trig2" />
    <circle
       style="display:inline;fill:#ff00ff;fill-opacity:1;stroke:none;stroke-width:0.26838;stroke-linejoin:round;stroke-opacity:1;paint-order:stroke fill markers"
       id="path4-5-7-61-3-61-6-7"
       cx="68.63633"
       cy="113.30096"
       inkscape:label="counter3-indicator4"
       r="1" />
    <circle
       style="display:inline;fill:#ff00ff;fill-opacity:1;stroke:none;stroke-width:0.26838;stroke-linejoin:round;stroke-opacity:1;paint-order:stroke fill markers"
       id="path4-5-7-61-3-61-6-5-2"
       cx="79.605881"
       cy="113.30096"
       inkscape:label="counter3-indicator5"
       r="1" />
    <circle
       style="display:inline;fill:#ff00ff;fill-opacity:1;stroke:none;stroke-width:0.26838;stroke-linejoin:round;stroke-opacity:1;paint-order:stroke fill markers"
       id="path4-5-7-61-3-61-6-5-7-2"
       cx="90.575432"
       cy="113.30096"
       inkscape:label="counter3-indicator6"
       r="1" />
    <circle
       style="display:inline;fill:#0000ff;fill-opacity:1;stroke:none;stroke-width:0.20628;stroke-linejoin:round;paint-order:stroke fill markers"
       id="path2-6-3-3-61"
       cx="68.63633"
       cy="107.17259"
       r="4"
       inkscape:label="counter3-trig4" />
    <circle
       style="display:inline;fill:#0000ff;fill-opacity:1;stroke:none;stroke-width:0.20628;stroke-linejoin:round;paint-order:stroke fill markers"
       id="path2-6-3-3-3-0"
       cx="90.575432"
       cy="107.17259"
       r="4"
       inkscape:label="counter3-trig6" />
    <circle
       style="display:inline;fill:#0000ff;fill-opacity:1;stroke:none;stroke-width:0.20628;stroke-linejoin:round;paint-order:stroke fill markers"
       id="path2-6-3-3-6-6"
       cx="79.605881"
       cy="107.17259"
       r="4"
       inkscape:label="main-pitch" />
    <ellipse
       style="display:inline;fill:#ff0000;fill-opacity:1;stroke:none;stroke-width:0.424272;stroke-linejoin:round;paint-order:stroke fill markers"
       id="path1-2-8-7"
       inkscape:transform-center-x="3.2953099"
       inkscape:transform-center-y="-6.1323609"
       inkscape:label="counter2-divisions"
       ry="4.9855571"
       rx="10.180413"
       cy="88.850754"
       cx="15.170073" />
    <ellipse
       style="display:inline;fill:#00ff00;fill-opacity:1;stroke:none;stroke-width:0.403095;stroke-linejoin:round;paint-order:stroke fill markers"
       id="path1-5-1-5-3"
       cx="15.106624"
       cy="105.08759"
       inkscape:transform-center-x="3.3158465"
       inkscape:transform-center-y="-5.50116"
       rx="10.243863"
       ry="4.4723935"
       inkscape:label="counter2-divisions-cv" />
    <circle
       style="display:inline;fill:#ff00ff;fill-opacity:1;stroke:none;stroke-width:0.26838;stroke-linejoin:round;stroke-opacity:1;paint-order:stroke fill markers"
       id="path4-5-7-61-3-6"
       cx="32.618168"
       cy="99.964676"
       r="1"
       inkscape:label="counter2-indicator" />
    <circle
       style="display:inline;fill:#0000ff;fill-opacity:1;stroke:none;stroke-width:0.20628;stroke-linejoin:round;paint-order:stroke fill markers"
       id="path2-9"
       cx="32.333683"
       cy="92.864044"
       r="4"
       inkscape:label="counter2-trigger" />
    <circle
       style="display:inline;fill:#0000ff;fill-opacity:1;stroke:none;stroke-width:0.20628;stroke-linejoin:round;paint-order:stroke fill markers"
       id="path2-6-3-4"
       cx="32.333683"
       cy="111.17074"
       r="4"
       inkscape:label="counter2-pitch" />
    <rect
       style="fill:#ffff00;fill-opacity:1;stroke:none;stroke-width:0.509296;stroke-linejoin:round;stroke-dasharray:none;stroke-opacity:1;paint-order:stroke fill markers"
       id="rect6"
       width="24.664909"
       height="4.1418495"
       x="72.015274"
       y="37.4981"
       inkscape:label="length-binary" />
    <rect
       style="display:inline;fill:#ffff00;fill-opacity:1;stroke:none;stroke-width:0.651258;stroke-linejoin:round;stroke-dasharray:none;stroke-opacity:1;paint-order:stroke fill markers"
       id="rect6-4"
       width="20.487728"
       height="8.153511"
       x="4.82342"
       y="70.482895"
       inkscape:label="counter1-divisions-binary" />
    <rect
       style="display:inline;fill:#ffff00;fill-opacity:1;stroke:none;stroke-width:0.826831;stroke-linejoin:round;stroke-dasharray:none;stroke-opacity:1;paint-order:stroke fill markers"
       id="rect6-4-15"
       width="35.367451"
       height="7.6131063"
       x="61.591148"
       y="59.584827"
       inkscape:label="counter3-divisions-binary" />
    <rect
       style="display:inline;fill:#ffff00;fill-opacity:1;stroke:none;stroke-width:0.651258;stroke-linejoin:round;stroke-dasharray:none;stroke-opacity:1;paint-order:stroke fill markers"
       id="rect6-4-1"
       width="20.487728"
       height="8.153511"
       x="4.8627596"
       y="109.55999"
       inkscape:label="counter2-divisions-binary" />
  </g>
</svg>
